<?xml version="1.0" encoding="UTF-8"?>
<svg id="Layer_5" data-name="Layer 5" xmlns="http://www.w3.org/2000/svg" width="60mm" height="60mm" viewBox="0 0 170.08 170.08">
  <defs>
    <style>
      .cls-1 {
        fill: #fff;
      }
    </style>
  </defs>
  <g>
    <path class="cls-1" d="M43.18,93.97h0c.46-.53.96-1.52,1.1-2.2v-.02s-4.77,0-4.77,0h-.29v.03c.13.68.6,1.67,1.05,2.2h0s-13.18,0-13.18,0l.49-.59c.38-.46.65-1.01.78-1.59l3.25-14.33c.18-.79.1-1.61-.21-2.35h0s21.02,0,21.02,0h0c-.32.74-.41,1.57-.23,2.36l3.1,14.31c.13.59.4,1.15.78,1.62l.47.58h-13.36ZM41.75,87.28h0c.79,0,1.36-.75,1.16-1.51l-1.16-4.45-1.16,4.45c-.2.76.38,1.51,1.16,1.51Z"/>
    <path class="cls-1" d="M68.7,86.79h6.38c.84,0,1.68-.13,2.48-.37h0s0,7.93,0,7.93l-.06-.02c-.78-.23-1.6-.35-2.42-.35h-18.39l.13-.23c.4-.7.61-1.49.61-2.29v-13.84c0-.89-.26-1.76-.75-2.51h0s12.75,0,12.75,0h0c-.49.75-.75,1.62-.75,2.51v9.17Z"/>
    <path class="cls-1" d="M96.47,74.74v9.15h0c-.63-.25-1.3-.37-1.97-.37h-3.95v7.67c0,.98.26,1.94.75,2.79h0s-12.8,0-12.8,0h0c.49-.85.75-1.81.75-2.79v-7.65h-3.96c-.59,0-1.17.1-1.72.28l-.27.09v-9.17l.27.09c.56.19,1.14.28,1.72.28h19.22c.67,0,1.34-.13,1.97-.37h0Z"/>
    <path class="cls-1" d="M108.02,87.75h6.68c.64,0,1.27-.13,1.86-.37h0s0,6.6,0,6.6h-19.47l.13-.23c.4-.7.61-1.49.61-2.29v-13.84c0-.89-.26-1.76-.75-2.51h0s19.49,0,19.49,0v6.6l-.12-.05c-.56-.22-1.15-.33-1.74-.33h-6.7v1.17h4.65c.68,0,1.35-.12,1.98-.36l.04-.02v4.76h0c-.65-.25-1.33-.37-2.02-.37h-4.65s0,1.22,0,1.22Z"/>
    <path class="cls-1" d="M142.72,93.97h-9.36c-1.68,0-3.21-.98-3.92-2.5l-.08-.17-1.44-3.31v3.09c0,1.04.33,2.05.93,2.89h0s-11.5,0-11.5,0l.13-.23c.4-.7.61-1.49.61-2.29v-13.84c0-.89-.26-1.76-.75-2.51h0s15.08,0,15.08,0c6.21,0,9.32,2.18,9.32,6.56v.11c0,2.4-1.44,4.13-2.84,5.21l1.75,4.01c.49,1.12,1.18,2.13,2.05,2.98h0ZM127.92,81.82v2.69h.82c.12.03,1.69,0,1.69-1.34s-1.6-1.35-1.73-1.35h-.77Z"/>
  </g>
  <g>
    <path class="cls-1" d="M66.16,105.43c.29,0,.53-.04.72-.13.19-.09.33-.21.44-.36s.17-.32.21-.52c.04-.2.06-.4.06-.6v-.21h1.52v.21c0,.96-.25,1.7-.75,2.21-.5.52-1.23.78-2.19.78s-1.65-.28-2.18-.84c-.54-.56-.8-1.38-.8-2.45v-1.79c0-.51.07-.98.21-1.39.14-.41.34-.75.6-1.03.26-.28.58-.5.94-.64s.78-.22,1.24-.22.9.07,1.27.21c.37.14.68.34.93.6.25.26.44.58.56.94.13.37.19.78.19,1.24v.21h-1.52v-.21c0-.19-.02-.38-.07-.58-.05-.19-.12-.36-.23-.52-.11-.15-.25-.28-.44-.37s-.41-.14-.69-.14c-.25,0-.47.05-.66.14-.18.1-.34.23-.46.39-.12.17-.21.36-.27.58-.06.22-.09.45-.09.68v2.02c0,.26.03.5.08.72s.14.41.25.57c.11.16.27.29.45.37.19.09.42.13.68.13Z"/>
    <path class="cls-1" d="M78.48,98.6v5.27c0,.92-.24,1.64-.73,2.16-.49.52-1.21.78-2.17.78s-1.68-.26-2.17-.78c-.49-.52-.73-1.24-.73-2.16v-5.27h1.52v5.27c0,.48.11.85.33,1.12.22.27.57.4,1.05.4s.82-.13,1.05-.4c.22-.27.33-.64.33-1.12v-5.27h1.52Z"/>
    <path class="cls-1" d="M81.8,98.6h1.56l1.58,7.29h.21l1.58-7.29h1.56l-1.82,8.05h-2.85l-1.82-8.05Z"/>
    <path class="cls-1" d="M91.92,98.6h5.08v1.45h-3.56v1.84h3.43v1.45h-3.43v1.86h3.7v1.45h-5.22v-8.05ZM94.53,96.19h1.54l-.97,1.56h-1.17l.6-1.56Z"/>
    <path class="cls-1" d="M101.37,98.6h5.08v1.45h-3.56v1.84h3.43v1.45h-3.43v1.86h3.7v1.45h-5.22v-8.05Z"/>
  </g>
  <g>
    <g>
      <g>
        <path class="cls-1" d="M94.63,64.38c.03.09.02.15-.03.22-.05.07-.15.16-.45.16h0c-.44,0-.81-.09-1.29-.29-.16-.07-.29-.17-.43-.26-.05-.04-.11-.08-.16-.11-.09-.06-.17-.13-.25-.2-.08-.07-.17-.14-.26-.2h0s0,0,0,0c0,0,0,0,0,0,.09.06.18.13.26.2.08.07.16.14.25.2.06.04.11.08.16.11.13.1.27.19.43.26.47.21.84.29,1.28.29h0c.16,0,.34-.02.44-.16.05-.07.06-.13.03-.21-.03-.08-.04-.09-.08-.1-.01,0-.03-.01-.05-.02-.27-.13-.53-.3-.84-.54-.56-.43-1.18-.77-1.89-1.05-.25-.1-.52-.04-.78.02-.04,0-.08.02-.13.03-.15.03-.31.05-.46.06-.19.02-.38.04-.56.09-.15.04-.3.07-.44.1-.2.05-.42.09-.62.16-.19.06-.32.04-.46.03-.1,0-.2-.02-.33,0,0,0,0,0,0,0,0,0,0,0,0,0,0,0,0,0,0,0,.13-.01.24,0,.34,0,.15.01.27.03.46-.03.21-.06.42-.11.62-.16.15-.03.29-.06.44-.1.19-.05.38-.07.57-.09.15-.02.3-.03.45-.06.04,0,.08-.02.13-.03.26-.06.54-.12.79-.02.71.28,1.33.63,1.89,1.05.3.23.57.4.84.53.02,0,.04.02.05.02.05.02.06.02.09.11Z"/>
        <path class="cls-1" d="M94.62,64.38c.03.08.02.14-.03.21-.1.14-.28.16-.44.16h0c-.44,0-.81-.09-1.28-.29-.15-.07-.29-.17-.43-.26-.05-.04-.11-.08-.16-.11-.09-.06-.17-.13-.25-.2-.08-.07-.17-.14-.26-.2h0s0,0,0,0c0,0,0,0,0,0h0c-.14-.01-.27.07-.39.15-.02.01-.04.02-.05.03-.04.02-.07.05-.11.07-.14.09-.26.17-.42.21-.11.03-.24.06-.38.08-.02,0-.04,0-.06.01-.22.04-.46.09-.64.15-.32.11-.61.25-.88.4-.31.16-.64.32-1.01.44l-.06.02c-.24.07-.48.14-.72.15,0,0-.02,0-.03,0,0,0,0,0,0,0-.12,0-.24-.01-.36-.04-.22-.06-.37-.18-.53-.3-.08-.06-.17-.13-.26-.19-.05-.03-.11-.06-.17-.08-.06-.03-.13-.05-.19-.09-.06-.04-.12-.09-.18-.13-.07-.05-.14-.1-.21-.15-.31-.2-.63-.36-1.07-.52-.23-.08-.47-.15-.71-.21-.1-.03-.21-.06-.31-.08-.16-.05-.31-.14-.45-.23s-.28-.19-.45-.23c0,0,0,0,0,0,0,0,0,0,0,0,0,0,.01,0,.02,0-.39.01-.74.28-1.05.51-.03.02-.05.04-.08.06-.15.11-.28.25-.41.39-.21.22-.42.44-.69.56-.3.13-.63.13-.94.13-.04,0-.07,0-.11,0-.39,0-.69-.12-1.04-.25-.08-.03-.16-.06-.24-.09-.18-.06-.37-.13-.55-.23-.08-.04-.16-.09-.24-.13-.12-.07-.25-.15-.39-.21,0,0-.02,0-.03-.01,0,0,0,0,0,0,0,0,0,0,0,0,0,0,.01,0,.02,0-.08,0-.16.07-.24.12-.03.02-.06.04-.08.06-.08.05-.16.09-.26.14-.14.07-.28.14-.39.22-.06.04-.11.09-.17.13-.14.11-.28.22-.53.36-.29.17-.66.44-.88.61-.06.04-.1.08-.14.1-.06.04-.12.03-.16,0-.11-.06-.19-.21-.18-.35h.03s0,0,0,.01c0,0,0,0,0,0h0s0,0,0,0c-.04-.35.36-.74.6-.98l.03-.02c.2-.2.45-.34.7-.47.05-.03.11-.06.17-.09.13-.08.28-.14.41-.21.12-.05.23-.11.35-.17.05-.03.1-.05.15-.08.21-.12.43-.24.66-.3.61-.17,1.03-.16,1.22-.14.06,0,.1.01.12.01.07,0,.14.01.2.02.14.02.28.03.43.04.01,0,.02,0,.04,0,.29,0,.44-.16.63-.39.18-.22.31-.47.45-.71.12-.23.25-.47.42-.68.39-.5,1.21-.77,1.79-.77h0c.11,0,.22,0,.32,0,.21,0,.42-.01.63,0,.19.02.39.06.58.11.14.03.28.06.42.09.13.02.27.04.4.05.16.02.33.03.5.07.11.02.23.05.34.08.16.04.32.08.48.1.61.07,1.15.02,1.57-.14.45-.17.88-.39,1.43-.73.1-.06.22-.14.32-.26,0,0,0,0,0,0,0,0,0,0,0,0-.02.03-.05.05-.07.07h0s0,0,0,0c0,0,0,0,0,0h0c-.12,0-.25-.02-.37-.04-.09-.02-.18-.03-.27-.04-.22-.01-.46-.03-.71-.08-.2-.04-.39-.07-.58-.09-.67-.09-1.3-.17-2.15-.87-.37-.3-.55-.53-.77-.99-.18-.36-.45-1.04-.21-1.49h0s.05-.04.08-.04h0c.11,0,.26.19.37.32.04.05.08.1.11.12.14.12.29.23.44.34.04.03.08.06.12.09.2.15.42.28.64.4.14.08.29.16.43.26.1.06.2.13.29.19.26.18.51.34.8.48.12.06.23.11.34.15,0,0,0,0,0,0h0c.09.04.18.07.27.1.16.06.29.14.42.22.07.04.13.09.21.13.38.22.73.4,1.15.5.17.04.35.04.52.04.03,0,.07,0,.1,0,.02,0,.04,0,.06,0,.01,0,.02,0,.03,0h0c.11,0,.22.01.33.04.35.08.45.3.57.55.05.11.11.23.19.34.08.12.18.22.27.32.06.06.12.13.18.19.13.16.11.32-.06.49-.3.29-.81.41-1.19.43-.2,0-.38-.03-.57-.13-.1-.05-.2-.11-.28-.17-.02-.01-.04-.03-.05-.04-.07-.05-.07-.05-.19-.02-.02,0-.03,0-.05.01-.05.01-.1.03-.16.04,0,0,0,0,0,0,0,0,0,0,0,0,0,0,0,0,0,0,0,0,0,0,0,0,0,0-.02,0-.03,0,0,0,0,0,0,0,0,0,0,0,0,0,0,0,.02,0,.02,0,0,.24-.2.53-.37.77-.05.08-.1.15-.14.21-.05.08-.09.15-.12.21-.08.16-.13.24-.34.42,0,0,0,0,0,0,0,0,0,0,0,0,0,0,0,0,0,0,0,0,0,0,0,0h0s0,0,0,0c0,0,0,0,0,0,.13-.01.24,0,.33,0,.14.01.28.03.46-.03.21-.06.42-.11.62-.16.15-.03.3-.06.44-.1.19-.05.38-.07.56-.09.15-.02.3-.03.46-.06.04,0,.09-.02.13-.03.26-.06.53-.12.78-.02.71.28,1.33.63,1.89,1.05.3.23.57.4.84.54.02,0,.04.02.05.02.04.02.05.02.08.1Z"/>
        <path class="cls-1" d="M87.15,65.39c.2-.02.4-.08.61-.14l.06-.02c.37-.11.7-.28,1.02-.44.28-.14.56-.29.88-.39.18-.06.41-.11.64-.15.02,0,.04,0,.06-.01h0s.04,0,.06-.01c.17,0,.48.03.59.05.06,0,.13.01.19.02.08,0,.17.01.25.03.1.02.17.09.25.16.03.03.07.06.11.09.13.09.35.3.44.42.22.28.33.35.56.5.04.02.08.05.13.08.07.05.15.1.21.16.08.06.16.12.24.17.02.01.04.03.06.04.08.05.16.1.25.17.05.04.11.08.17.12.05.03.1.07.15.11.03.18-.07.32-.19.47-.03.01-.06.02-.09.04-.1.04-.2.08-.31.08h0s-.07,0-.1,0c-.04,0-.07,0-.11,0-.05,0-.11,0-.16-.02-.07-.02-.13-.06-.2-.1-.02-.01-.05-.03-.07-.04-.56-.31-1.15-.76-1.76-1.33-.02-.02-.04-.04-.06-.06-.06-.06-.13-.13-.21-.17-.09-.04-.18-.04-.28-.03-.2,0-.39.05-.58.1-.11.03-.22.05-.33.07-.61.1-1.24.08-1.86.07-.23,0-.46-.01-.69-.01.04,0,.07,0,.11,0Z"/>
        <polygon class="cls-1" points="91.76 63.68 91.76 63.69 91.75 63.69 91.75 63.69 91.75 63.69 91.75 63.69 91.75 63.68 91.75 63.68 91.75 63.68 91.76 63.68 91.76 63.68"/>
        <path class="cls-1" d="M91.76,63.68s0,0,0,0c0,0,0,0,0,0Z"/>
        <path class="cls-1" d="M91.75,63.69s0,0,0,0c0,0-.02,0-.02,0-.13,0-.25.08-.36.15-.02.01-.04.02-.05.03-.04.02-.07.05-.11.07-.14.09-.27.17-.42.21-.1.03-.21.05-.32.07-.02,0-.04,0-.06,0h0c.14-.03.26-.05.38-.08.15-.04.28-.12.42-.21.04-.02.07-.05.11-.07.02-.01.04-.02.05-.03.12-.07.25-.16.39-.15,0,0,0,0,0,0,0,0,0,0,0,0Z"/>
        <path class="cls-1" d="M91.49,60.9c.14.16.12.33-.06.5-.31.29-.82.42-1.19.43-.02,0-.03,0-.05,0-.18,0-.35-.04-.52-.13-.11-.05-.2-.11-.29-.17-.02-.01-.04-.03-.05-.04-.07-.05-.07-.05-.19-.02-.02,0-.03,0-.05.01-.05.01-.11.03-.16.04,0,0,0,0,0,0,.05,0,.11-.02.16-.04.02,0,.03,0,.05-.01.12-.03.12-.03.19.02.01,0,.03.02.05.04.08.06.18.11.28.17.19.09.37.13.57.13.37-.02.88-.14,1.19-.43.18-.17.2-.33.06-.49-.06-.07-.12-.13-.18-.19-.09-.1-.19-.2-.27-.32-.08-.11-.13-.23-.19-.34-.12-.25-.22-.47-.57-.55-.11-.02-.22-.03-.33-.04,0,0,0,0,0,0,0,0,0,0,0,0,.11,0,.22.01.33.04.35.08.45.3.57.56.05.11.11.23.19.34.08.12.18.22.27.32.06.06.12.13.18.19Z"/>
        <path class="cls-1" d="M90.41,64.23s.04,0,.06,0c-.02,0-.04,0-.06.01h0s0,0,0,0,0,0,0,0Z"/>
        <path class="cls-1" d="M90.41,64.24s-.04,0-.06.01c-.22.04-.45.09-.64.15-.32.11-.61.25-.88.39-.32.16-.64.32-1.02.44l-.06.02c-.21.06-.41.12-.61.14-.04,0-.07,0-.11,0,.24,0,.47-.08.72-.15l.06-.02c.37-.11.7-.28,1.01-.44.28-.14.56-.29.88-.4.18-.06.41-.11.64-.15.02,0,.04,0,.06-.01h0s0,0,0,0,0,0,0,0h0Z"/>
        <path class="cls-1" d="M89.95,59.46s0,0,0,0h0s-.06,0-.1,0c-.02,0-.04,0-.06,0,.02,0,.04,0,.06,0,.02,0,.04,0,.06,0,.01,0,.02,0,.03,0,0,0,0,0,0,0h0s0,0,0,0Z"/>
        <polygon class="cls-1" points="89.95 59.46 89.95 59.46 89.95 59.46 89.95 59.46 89.95 59.46"/>
        <path class="cls-1" d="M89.95,59.47s-.02,0-.03,0c-.02,0-.04,0-.06,0,.03,0,.06,0,.1,0Z"/>
        <path class="cls-1" d="M89.95,59.46s-.02,0-.03,0c-.02,0-.04,0-.06,0,.03,0,.06,0,.09,0Z"/>
        <path class="cls-1" d="M89.85,59.46s-.04,0-.06,0c-.2-.05-.38-.2-.54-.34-.02-.02-.04-.03-.06-.05-.21-.18-.35-.4-.5-.63h0c-.05-.08-.08-.16-.12-.23-.06-.12-.11-.23-.21-.33-.18-.18-.34-.37-.5-.56-.08-.1-.17-.2-.25-.3-.39-.45-.66-.81-.89-1.21-.03-.06-.07-.11-.11-.17-.06-.09-.13-.19-.17-.29-.06-.15-.12-.28-.22-.42-.02-.03-.04-.07-.07-.11-.07-.11-.14-.24-.25-.3-.07-.04-.31-.09-.38-.04-.07.05-.08.22-.09.34,0,.03,0,.06,0,.09-.02.15-.05.3-.08.44-.01.06-.03.12-.04.19-.07.34,0,.66.22,1.06.13.24.31.44.48.65.1.12.21.24.3.37.44.6.78.81.87.86-.02,0-.04-.02-.06-.02-.35-.22-.71-.69-.82-.83-.09-.13-.2-.25-.3-.37-.17-.2-.36-.41-.49-.65-.22-.4-.29-.72-.22-1.06.01-.06.03-.13.04-.19.03-.14.06-.29.08-.44,0-.02,0-.05,0-.09,0-.12.02-.29.09-.34.04-.03.14-.02.19-.02.08.01.16.03.19.05.11.06.19.19.25.31.02.04.04.07.07.11.09.14.15.27.22.42.04.1.11.19.17.29.04.05.08.11.11.17.23.4.5.76.89,1.21.09.1.17.2.25.3.16.19.32.39.5.56.1.1.15.21.21.33.03.07.07.15.12.22h0c.15.24.3.46.5.64.02.02.04.03.06.05.17.15.37.32.59.35Z"/>
        <path class="cls-1" d="M89.79,59.46s.04,0,.06,0c-.03,0-.07,0-.1,0-.17,0-.35,0-.52-.04-.42-.1-.77-.28-1.15-.5-.08-.04-.14-.09-.21-.13-.13-.09-.25-.17-.42-.22-.09-.03-.18-.06-.27-.1,0,0,0,0,0,0s0,0,0,0c0,0,0,0,0,0,.09.04.18.07.27.1.17.06.29.14.42.22.07.04.13.09.21.13.38.22.73.4,1.15.5.17.04.35.04.52.04.01,0,.03,0,.04,0Z"/>
        <path class="cls-1" d="M89.79,59.46s-.03,0-.04,0c-.17,0-.35,0-.52-.04-.42-.1-.77-.28-1.15-.5-.07-.04-.14-.09-.21-.13-.13-.09-.25-.17-.42-.22-.09-.03-.18-.06-.27-.1-.09-.05-.43-.27-.87-.86-.09-.13-.2-.25-.3-.37-.17-.2-.35-.41-.48-.65-.22-.4-.29-.72-.22-1.06.01-.06.03-.13.04-.19.03-.14.06-.29.08-.44,0-.02,0-.05,0-.09,0-.12.02-.29.09-.34.07-.05.3,0,.38.04.11.06.18.19.25.3.02.04.04.08.07.11.09.14.15.27.22.42.04.1.11.2.17.29.04.05.08.11.11.17.23.4.5.76.89,1.21.09.1.17.2.25.3.16.19.32.39.5.56.1.1.15.21.21.33.03.07.07.15.12.22h0c.15.24.3.46.5.64.02.02.04.03.06.05.16.14.34.3.54.34Z"/>
        <path class="cls-1" d="M88.93,61.54c0,.24-.2.54-.37.78-.05.08-.1.15-.14.21-.05.08-.09.15-.12.21-.08.15-.13.24-.33.41,0,0,0,0,0,0,0,0,0,0,0,0,0,0,0,0,0,0,0,0,0,0,0,0,.2-.18.25-.26.34-.42.03-.06.07-.12.12-.21.04-.06.09-.13.14-.21.16-.24.37-.53.37-.77,0,0,0,0,0,0Z"/>
        <polygon class="cls-1" points="88.93 61.53 88.93 61.54 88.92 61.54 88.92 61.53 88.93 61.53"/>
        <polygon class="cls-1" points="88.93 61.52 88.93 61.53 88.92 61.53 88.92 61.52 88.92 61.52 88.93 61.52"/>
        <path class="cls-1" d="M88.92,61.54s-.02,0-.02,0c0,0,0,0,0,0,0,0,0,0,0,0,0,0,.02,0,.03,0,0,0,0,0,0,0Z"/>
        <path class="cls-1" d="M88.73,59.7s0,0,0,0c-.1.12-.22.2-.32.26-.55.34-.98.56-1.43.73-.42.16-.96.21-1.57.14-.16-.02-.32-.06-.48-.1-.11-.03-.23-.06-.34-.08-.17-.03-.34-.05-.5-.07-.13-.01-.27-.03-.4-.05-.14-.02-.28-.05-.42-.09-.19-.04-.39-.09-.58-.11-.21-.02-.42-.01-.63,0-.11,0-.22,0-.32,0h0c-.57,0-1.39.27-1.79.77-.17.21-.29.45-.42.68-.13.24-.27.49-.45.71-.19.24-.34.39-.63.39-.01,0-.02,0-.04,0-.15,0-.29-.02-.43-.04-.07,0-.14-.02-.2-.02-.02,0-.06,0-.12-.01h0s.01,0,.02,0c0,0,0,0,0,0,0,0,0,0,0,0,.05,0,.08.01.1.01.07,0,.14.01.2.02.14.02.28.03.43.04.01,0,.02,0,.04,0,.28,0,.43-.16.62-.39.18-.22.31-.47.45-.71.13-.23.25-.47.42-.68.1-.13.23-.24.37-.34,0,0,0,0,0,0,0,0,0,0,0,0,.42-.29.99-.44,1.42-.44h.02c.1,0,.21,0,.31,0,.21,0,.42-.01.63,0,.19.02.39.06.58.11.14.03.28.06.42.09.13.02.27.04.4.05.16.02.33.04.5.07.11.02.23.05.34.08.16.04.32.08.47.1.6.07,1.15.02,1.56-.14.45-.17.88-.39,1.43-.73.08-.05.17-.11.25-.18.02-.02.05-.05.07-.07,0,0,0,0,0,0Z"/>
        <path class="cls-1" d="M88.65,59.77s0,0,0,0c0,0,0,0,0,0-.01,0-.02,0-.03,0-.11,0-.23-.02-.34-.04-.09-.02-.18-.03-.27-.04-.22-.01-.46-.03-.71-.08-.2-.04-.39-.06-.58-.09-.67-.09-1.3-.17-2.15-.87-.37-.3-.55-.54-.78-.99-.18-.36-.45-1.04-.21-1.5,0,0,0,0,0,0,0,0,0,0,0,0-.24.46.03,1.13.21,1.49.23.46.41.69.77.99.85.7,1.48.78,2.15.87.19.02.38.05.58.09.24.05.48.07.71.08.09,0,.18.02.27.04.12.02.25.05.37.04h0s0,0,0,0Z"/>
        <path class="cls-1" d="M87.19,58.46s0,0,0,0,0,0,0,0h0s0,0,0,0c-.02-.01-.04-.02-.06-.03.02,0,.04.02.06.02,0,0,0,0,0,0Z"/>
        <path class="cls-1" d="M87.18,58.47c-.11-.05-.22-.1-.34-.15-.28-.14-.53-.31-.8-.48-.09-.06-.19-.13-.29-.19-.14-.09-.29-.17-.43-.26-.21-.12-.44-.25-.64-.4-.04-.03-.08-.06-.12-.09-.15-.11-.3-.22-.44-.34-.02-.02-.06-.07-.11-.12-.11-.14-.26-.32-.37-.32h0s-.06.01-.08.04c0,0,0,0,0,0,0,0,0,0,0,0,0,0,0,0,0,0,0,0,0,0,0,0,.02-.03.05-.04.08-.04h0c.12,0,.27.19.38.32.04.05.08.1.1.12.14.12.29.23.44.34.04.03.08.06.12.09.2.15.42.28.64.4.14.08.29.16.43.26.1.06.2.13.29.19.26.18.51.34.8.48.09.05.19.09.28.13.02.01.04.02.06.03Z"/>
        <path class="cls-1" d="M87.04,65.39s.07,0,.11,0c-.04,0-.07,0-.11,0,0,0-.02,0-.03,0,0,0,0,0,0,0,0,0,0,0,0,0,0,0,.02,0,.03,0Z"/>
        <path class="cls-1" d="M87.02,65.4s.02,0,.03,0c-.02,0-.04,0-.05,0-.11,0-.22-.01-.33-.04-.22-.06-.37-.18-.53-.3-.08-.06-.17-.13-.26-.19-.05-.03-.11-.06-.17-.08-.06-.03-.13-.05-.19-.09-.06-.04-.12-.09-.18-.13-.07-.05-.14-.1-.21-.15-.31-.2-.63-.36-1.07-.52-.23-.08-.47-.15-.7-.21-.1-.03-.21-.06-.31-.09-.17-.05-.31-.14-.45-.24-.13-.08-.26-.17-.4-.22,0,0,0,0,0,0,0,0,0,0,0,0,0,0-.02,0-.02,0,0,0-.01,0-.02,0,0,0,0,0,0,0,0,0,0,0,0,0,.16.04.31.14.45.23s.28.19.45.23c.1.03.21.06.31.08.23.06.47.13.71.21.44.16.77.32,1.07.52.07.05.14.1.21.15.06.04.12.09.18.13.06.04.13.07.19.09.06.02.12.05.17.08.1.06.18.13.26.19.16.12.31.24.53.3.12.03.24.05.36.04,0,0,0,0,0,0,0,0,0,0,0,0Z"/>
        <path class="cls-1" d="M87.02,65.39s.02,0,.03,0c0,0-.02,0-.03,0,0,0,0,0,0,0Z"/>
        <path class="cls-1" d="M83.57,56.15s0,0,0,0c0,0,0,0,0,0h0s0,0,0,0c0,0,0,0,0,0,0,0,0,0,0,0,0,0,0,0,0,0Z"/>
        <path class="cls-1" d="M82.17,63.15s0,0,0,0c0,0-.02,0-.03,0,0,0,.02,0,.02,0,0,0,0,0,0,0Z"/>
        <path class="cls-1" d="M82.17,63.16s0,0,0,0h0c-.4,0-.75.27-1.07.51-.03.02-.05.04-.08.06-.15.11-.28.25-.41.39-.21.22-.42.44-.69.56-.27.12-.56.13-.84.13-.04,0-.07,0-.11,0-.04,0-.07,0-.11,0-.4,0-.7-.12-1.04-.25-.08-.03-.16-.06-.24-.09-.18-.06-.37-.13-.55-.23-.08-.04-.16-.09-.24-.13-.12-.07-.25-.15-.39-.21,0,0,0,0,0,0,0,0,0,0,0,0h0c.14.06.26.14.39.21.08.04.16.09.24.13.18.1.37.16.55.23.08.03.16.06.24.09.35.13.65.25,1.04.25.04,0,.07,0,.11,0,.32,0,.65,0,.94-.13.27-.12.48-.34.69-.56.13-.14.27-.28.41-.39.03-.02.05-.04.08-.06.31-.24.66-.5,1.05-.51,0,0,.02,0,.03,0Z"/>
        <path class="cls-1" d="M81.45,59.58c.05.14.02.3-.07.46-.19.35-.49.45-.8.55,0,0,0,0,0,0,.33-.11.61-.21.79-.55.17-.3.12-.6-.22-.76-.26-.12-.62-.09-.89.02-.05.02-.09.04-.13.07.03-.03.07-.05.13-.07.28-.12.65-.12.89-.02.15.07.26.17.3.3Z"/>
        <path class="cls-1" d="M81.37,60.04c.09-.16.12-.32.07-.46-.04-.13-.14-.23-.29-.29-.24-.11-.6-.1-.88.02-.33.14-.19.41-.13.8.02.14.04.24.07.31-.06-.07-.11-.18-.13-.34-.05-.34-.11-.56.07-.7.04-.03.08-.05.13-.07.26-.11.63-.13.89-.02.34.15.39.46.22.76-.19.33-.46.44-.79.55,0,0,0,0,0,0,.31-.1.6-.2.79-.54Z"/>
        <path class="cls-1" d="M81.44,59.58c.05.14.02.29-.07.46-.19.34-.48.44-.79.54,0,0,0-.02,0-.02,0,0,.08-.02.08-.02-.21,0-.36-.02-.46-.14-.03-.07-.05-.17-.07-.31-.05-.39-.2-.66.13-.8.28-.12.64-.12.88-.02.15.07.25.17.29.29Z"/>
        <path class="cls-1" d="M80.59,60.56s0,0,0,.02h-.03s0,.01,0,.01,0,0,0,0c0,0,.02,0,.03,0,0,0,0,.01,0,.01-.22,0-.32-.04-.38-.19.1.11.26.14.46.14,0,0-.08.02-.08.02Z"/>
        <path class="cls-1" d="M80.31,60.77s0,0,0,0c0,0,0,0,0,0s0,0,0,0c0,0,0,0,0,0,0,0,0,0,0,0-.09-.01-.2.05-.29.1-.02.01-.04.02-.06.03-.15.08-.29.15-.44.21-.04.02-.08.04-.12.05-.21.1-.41.18-.65.18h0s-.04,0-.06,0c-.02,0-.04,0-.06,0-.08,0-.16,0-.24-.03-.09-.03-.17-.07-.25-.11-.02-.01-.05-.02-.07-.04-.18-.09-.37-.14-.57-.19-.1-.02-.2-.05-.3-.08-.14-.04-.28-.11-.41-.17-.11-.05-.22-.11-.33-.15,0,0,0,0,.01,0,0,0,0,0,0,0,.11.04.22.09.32.14.13.06.27.13.41.17.1.03.2.06.3.08.2.05.39.09.57.19.02.01.05.02.07.04.08.04.16.08.24.11.1.04.2.03.3.03.02,0,.04,0,.06,0h0c.23,0,.43-.09.65-.18.04-.02.08-.04.12-.05.15-.06.29-.13.44-.21.02,0,.04-.02.06-.03.09-.05.2-.11.29-.1Z"/>
        <path class="cls-1" d="M80.31,60.78s0,0,0,0c0,0,0,0,0,0Z"/>
        <path class="cls-1" d="M80.31,60.78s0,0,0,0c-.14.1-.27.21-.37.34-.17.21-.29.45-.42.68-.13.24-.27.49-.45.71-.19.23-.34.39-.62.39-.01,0-.02,0-.04,0-.15,0-.29-.02-.43-.04-.07,0-.14-.02-.2-.02-.01,0-.05,0-.1-.01,0,0,0,0,0,0-.02,0-.03,0-.03,0,.02-.01.06-.03.06-.05,0-.01,0-.03-.03-.04h0s-.38-.02-.45-.05c-.15-.06-.36-.14-.42-.2-.11-.11-.26-.33-.4-.54-.12-.16-.22-.32-.3-.41,0,0,0,0,0,0h0c-.08,0-.15.03-.22.06-.05.03-.12.06-.2.08-.08.02-.17.07-.26.12-.12.07-.24.13-.34.14-.25.02-.46.1-.67.19-.12.05-.23.09-.36.13,0,0,0,0,0,0,0,0,0,0,0,0,0,0,0,0,0,0,.04-.01.07-.02.11-.04h0c-.09.06-.2.1-.32.14-.26.09-.49.12-.71.09-.13-.02-.24-.04-.33-.08h-.02c-.09-.04-.25-.09-.29-.17.1-.32.11-.32.21-.4.01-.01.03-.02.04-.04.09-.07.23-.13.36-.18.11-.04.21-.08.29-.13.14-.09.3-.17.46-.23.09-.04.18-.08.27-.13.18-.09.35-.17.53-.23.31-.11.63-.2.94-.27.04,0,.09-.02.13-.03.14-.03.28-.07.41-.06h0s0,0,0,0c0,0,0,0,0,0,.04,0,.08.02.11.04.06.02.13.05.2.05,0,0,0,0,0,0,.11.04.23.1.33.15.13.06.27.13.41.17.1.03.2.06.3.08.2.05.38.09.57.19.02.01.05.02.07.04.08.04.16.08.25.11.08.03.16.03.24.03.02,0,.04,0,.06,0,.02,0,.04,0,.06,0h0c.24,0,.44-.09.65-.18.04-.02.08-.04.12-.05.15-.06.29-.13.44-.21.02,0,.04-.02.06-.03.09-.05.19-.11.29-.1Z"/>
        <path class="cls-1" d="M77.69,62.72s.03.03.03.04c0-.01,0-.02-.03-.03h0s-.37-.02-.45-.05c-.16-.06-.37-.14-.42-.2-.11-.12-.26-.33-.4-.54-.11-.16-.22-.32-.3-.41h0s0,0,0,0c0,0,0,0,0,0,.08.1.19.25.3.41.15.21.3.42.4.54.05.06.26.14.42.2.07.03.41.03.45.05h0Z"/>
        <path class="cls-1" d="M77.69,62.82s0,0,0,0c0,0,0,0,0,0,0,0-.02,0-.02,0-.02,0-.02,0-.01,0,.01,0,.03,0,.04,0Z"/>
        <path class="cls-1" d="M77.68,62.82s0,0,0,0c-.01,0-.02,0-.04,0,0,0,0,0,0,0,0,0,.01,0,.03,0Z"/>
        <path class="cls-1" d="M77.66,62.83h0c-.2-.02-.61-.03-1.22.14-.23.06-.45.18-.66.3-.05.03-.1.05-.15.08-.11.06-.23.12-.35.17-.14.06-.28.13-.41.21-.05.03-.11.06-.17.09-.24.13-.5.27-.7.47l-.03.02c-.24.24-.64.63-.6.98,0,0,0,0,0,0h0s0,0,0,0c0,0,0,0,0-.01-.03-.35.36-.74.6-.97l.03-.02c.2-.2.45-.34.7-.47.05-.03.11-.06.17-.09.13-.08.28-.14.41-.21.12-.05.23-.11.35-.17.05-.03.1-.05.15-.08.21-.12.43-.24.66-.3.6-.17,1.01-.16,1.21-.14,0,0,0,0,.01,0Z"/>
        <path class="cls-1" d="M77.71,62.76s-.05.04-.06.05c-.02,0,.05-.03.06-.05Z"/>
        <path class="cls-1" d="M76.48,60.58s0,0,0,0c0,0,0,0-.01,0,0,0,0,0,0,0,0,0,0,0,.01,0,0,0,0,0,0,0Z"/>
        <path class="cls-1" d="M76.46,60.58s0,0,.01,0c0,0,0,0,0,0,0,0,0,0-.01,0,0,0,0,0,0,0,0,0,0,0,0,0,0,0,0,0,0,0h0s0,0,0,0Z"/>
        <path class="cls-1" d="M76.25,60.53c.07.03.13.05.2.05,0,0,0,0,0,0,0,0,0,0,0,0,0,0,0,0,0,0,0,0,0,0,0,0-.07,0-.13-.03-.2-.05-.04-.01-.07-.03-.11-.04,0,0,0,0,0,0t0,0s0,0,0,0c0,0,0,0,0,0,0,0,0,0,0,0,.04,0,.08.02.11.04Z"/>
        <path class="cls-1" d="M76.41,63.89s0,0,0,0c0,0,0,0,0,0h0s-.01,0-.02,0c0,0,.01,0,.02,0,0,0,0,0,0,0Z"/>
        <path class="cls-1" d="M76.41,63.89h0s0,0,0,0c0,0-.01,0-.02,0,0,0-.01,0-.02,0,0,0,0,0,0,0,0,0,0,0,0,0,0,0,.02,0,.03.01Z"/>
        <path class="cls-1" d="M76.4,63.89s.01,0,.02,0c-.08,0-.17.06-.25.12-.03.02-.06.04-.09.06-.08.05-.16.09-.26.14-.14.07-.28.14-.39.22-.06.04-.11.09-.17.13-.14.11-.28.22-.53.36-.29.17-.66.44-.88.61-.06.04-.1.08-.14.1-.03.02-.06.03-.09.03-.03,0-.06,0-.08-.02-.11-.06-.19-.22-.19-.36,0,0,0,0,0,0h0s0,0,0,0c0,.13.08.29.18.35.04.02.1.04.16,0,.04-.03.08-.06.14-.1.22-.16.59-.44.88-.61.25-.14.39-.25.53-.36.05-.04.11-.08.17-.13.11-.08.25-.15.39-.22.09-.05.18-.09.26-.14.03-.02.05-.04.08-.06.07-.05.16-.11.24-.12Z"/>
        <polygon class="cls-1" points="76.14 60.5 76.14 60.5 76.14 60.5 76.14 60.5"/>
        <path class="cls-1" d="M76.14,60.5h0s0,0,0,0h0c-.13,0-.27.03-.41.06-.05.01-.09.02-.13.03-.31.07-.63.16-.94.27-.18.07-.36.14-.53.23-.09.05-.18.09-.27.13-.15.07-.31.14-.46.23-.08.05-.18.09-.29.13-.13.05-.27.1-.36.18-.02.01-.03.03-.04.04-.09.08-.1.08-.21.4,0,0,0,0,0,0,0,0,0,0,0,0,0,0,0,0,0,0,0,0,0,0,0,0,.11-.32.11-.33.21-.41.01-.01.03-.02.04-.04.09-.08.23-.13.36-.18.11-.04.21-.08.29-.13.15-.09.3-.17.46-.23.09-.04.18-.08.27-.13.18-.09.35-.17.53-.23.31-.11.63-.2.94-.27.04,0,.09-.02.13-.03.13-.03.26-.06.38-.06.01,0,.02,0,.03,0,0,0,0,0,0,0Z"/>
        <polygon class="cls-1" points="76.11 61.52 76.11 61.52 76.1 61.52 76.1 61.52 76.1 61.52 76.1 61.52 76.1 61.52 76.1 61.52 76.11 61.52"/>
        <path class="cls-1" d="M75.88,61.58c.07-.04.14-.07.22-.06,0,0,0,0,0,0,0,0,0,0,0,0,0,0,0,0,0,0-.08,0-.14.02-.21.06-.06.03-.12.06-.2.08-.08.02-.17.07-.26.12-.12.07-.24.14-.35.14-.25.02-.45.1-.67.19-.08.03-.17.07-.26.1-.04.01-.07.02-.11.04,0,0,0,0,0,0,0,0,0,0,0,0,0,0,0,0,0,0,.13-.04.25-.09.36-.13.21-.09.42-.17.67-.19.1,0,.22-.08.34-.14.1-.05.18-.1.26-.12.08-.02.15-.05.2-.08Z"/>
        <path class="cls-1" d="M74.16,62.23s0,0,0,0c-.09.05-.2.09-.32.13-.19.07-.37.1-.54.1-.06,0-.12,0-.18-.01-.13-.02-.24-.04-.33-.08h-.02c-.09-.04-.25-.09-.3-.18,0,0,0,0,0,0,0,0,0,0,0,0,0,0,0,0,0,0,0,0,0,0,0,0,.04.08.2.13.29.16h.02c.09.04.2.06.33.08.22.03.45,0,.71-.09.11-.04.23-.08.32-.13,0,0,0,0,0,0Z"/>
        <polygon class="cls-1" points="72.49 62.2 72.49 62.2 72.48 62.21 72.48 62.21 72.48 62.21 72.48 62.21 72.48 62.21 72.48 62.2 72.48 62.2 72.48 62.2 72.49 62.2 72.49 62.2"/>
        <path class="cls-1" d="M72.48,62.2s0,0,0,0c0,0,0,0,0,0Z"/>
      </g>
      <path class="cls-1" d="M94.59,64.14c-.08-.07-.13-.02-.23-.03,0,0,.05.09-.02.07.02-.09-.07-.18-.13-.23-.07-.05-.17-.07-.23-.11-.17-.1-.44-.29-.59-.43-.05-.05-.08-.12-.14-.16-.06-.03-.13-.04-.2-.09-.04-.03-.06-.07-.1-.1-.07-.04-.18-.02-.27-.07-.11-.06-.23-.16-.35-.22-.11-.05-.38-.1-.44-.21-.02-.03,0-.08-.07-.1-.07-.01-.08.05-.15.07-.31.1-.65.02-.97.05-.18.01-.38.08-.55.11-.07,0-.29.04-.34,0-.03-.02-.04-.1-.08-.12-.04-.02-.13-.02-.19-.04-.09-.03-.15-.11-.21-.14-.07-.03-.28-.03-.33-.08-.03-.05,0-.11-.02-.15-.02-.03-.15-.04-.13-.11,0-.03.13-.05.18-.14.06-.12,0-.42.03-.45.02-.01.25-.01.29,0,.05.01.19.12.26.15.35.16.82.23,1.19.1.04-.01.07-.05.11-.06.06-.02.12,0,.18-.03.12-.06.2-.26.28-.29.08-.04.2.02.27-.03.05-.05.01-.18.02-.27,0-.09.07-.25.05-.32-.02-.05-.15-.05-.2-.09-.04-.03-.13-.17-.18-.23-.07-.08-.15-.15-.21-.21-.02-.02-.09-.08-.1-.1-.03-.06-.02-.17-.05-.25-.05-.11-.31-.37-.42-.42-.19-.08-.64-.11-.76-.22-.04-.04-.25-.31-.26-.35-.02-.05.03-.07.03-.12,0-.09-.14-.24-.2-.32-.37-.49-.77-.79-1.19-1.21-.23-.23-.31-.42-.48-.68-.05-.08-.14-.15-.19-.24-.12-.2-.21-.41-.37-.59-.3-.35-.59-.52-.83-.95-.04-.07-.1-.29-.21-.29-.05,0-.11.1-.22.04-.06-.03-.29-.13-.44,0-.06.05-.26.43-.29.52-.01.04-.06.19-.06.22,0,.05,0,.26,0,.27,0,0-.08-.01-.09.03,0,0,.02.13.02.15.01.06.05.12.06.17,0,.05-.01.12,0,.16.01.03.09.05.07.08,0,0-.04-.03-.05.01,0,.02.15.32.16.34,0,.03.14.24.13.25-.04.05.28.3.36.38.15.14,1.03,1.01,1.01,1.03-.14,0-1.47-.85-1.59-.92-.04-.02-.06-.06-.1-.08-.09-.04-.23-.03-.32-.09-.01-.02.03-.24-.02-.26-.03-.02-.04-.06-.11-.07-.13-.03-.26.03-.38-.05-.04-.02-.06-.06-.09-.09-.03-.02-.09-.03-.11-.05-.02-.03,0-.09-.04-.14-.03-.04-.09-.03-.14-.09-.05-.06-.05-.17-.15-.19-.02,0-.06-.01-.07,0-.03.02,0,.42.01.49-.06.08-.23,0-.24.11,0,.32.06.62.15.93.06.21.25.83.37.98.17.19.4.13.62.2.21.07.36.21.55.29.28.12.58.22.86.33.24.1.44.12.69.17.06.01.1.05.16.06.18.03.4,0,.59.02.07,0,.16.05.21.05.06,0,.19-.05.27-.05.06,0,.24,0,.29.01.11.05-.03.28-.08.34-.03.03-.07.04-.1.06-.24.21-.48.29-.77.38-.14.04-.28.12-.43.1-.04,0-.1-.07-.11,0-.03.09.04.13-.08.21-.2.12-.39-.01-.55.03-.02,0-.02.04-.04.05-.08.03-.35,0-.44-.02-.03,0-.07-.03-.07-.07.04-.03.25.04.29.03.03,0,.19-.07.19-.11,0-.01-.01-.02-.02-.03-.08-.06-.52-.03-.64-.02-.03,0-.02.03-.05.04-.27.03-.6-.06-.87-.07-.23-.01-.47.02-.69,0-.09,0-.35-.03-.38-.12,0-.02,0-.06,0-.07,0,0-.17-.1-.19-.1-.08-.02-.17.03-.25.01l.02.04s-.12,0-.13-.04c-.02-.06.07-.02.09-.02.05,0,.09-.16.03-.18-.05-.02-.3,0-.37,0-.19,0-.31-.01-.49-.06-.08-.02-.24-.04-.3-.08-.12-.07-.11-.24-.14-.36-.03-.09-.33-.25-.41-.3-.13-.07-.07-.14-.19-.26-.03-.03-.04-.1-.07-.11-.03,0-.07.02-.1.01-.05,0-.1-.02-.16-.02-.06,0-.14.04-.2,0-.03-.02-.04-.08-.1-.1-.01,0-.23.01-.24.01-.02,0-.02.04-.05.06-.04.03-.1.03-.14.07-.01.01-.17.22-.17.23-.05.09-.04.37-.01.47.03.1.14.19.16.28.03.12.28.25.31.37.02.07,0,.09-.03.22-.02.11-.19.1-.24.14-.08.06-.12.17-.26.22-.33.11-.65.13-.99,0-.05-.02-.07-.06-.13-.07-.16-.03-.32.03-.45-.1-.02-.02-.02-.07-.05-.08-.11-.04-.16.04-.23.05-.09.01-.3,0-.39-.04-.03-.01-.05-.05-.08-.06-.04-.01-.08,0-.13-.03-.07-.03-.11-.17-.18-.18-.11-.02-.16.14-.28.12-.13-.02-.04-.12-.05-.21-.08-.02-.14.02-.21.03-.23.05-.43.09-.65.17-.48.18-1.07.28-1.54.51-.19.1-.34.27-.56.35-.09.03-.26.04-.33.11-.01.01-.15.17-.15.18-.02.05-.04.27-.05.28-.01,0-.11-.02-.15.04-.03.05-.05.18-.1.25-.09.14-.18.14-.21.35-.01.11.07.06.14.08.04.02.1.1.14.12.08.05.25.1.34.05.03-.01.04-.05.07-.06.03-.01.19,0,.22.02.05.02.04.11.19.08.14-.03.38-.37.47-.4.07-.02.14.02.22,0,.04-.02.09-.08.13-.1.22-.12.47-.18.71-.25.24-.07.47-.21.74-.12.09.03.06.1.07.12,0,0,.11,0,.15,0,.04.01.05.08.08.09.04.02.09,0,.13.01.09.02.28.16.32.25.04.07.72.13.78.22.07.11-.03.03-.85.1-.33.03-.47-.02-.8.13-.19.09-.41.32-.6.39-.15.06-.34.04-.5.09-.19.05-.38.32-.52.46-.15.14-.26.07-.44.1-.07.12-.16.22-.24.33-.12.19-.14.3-.22.49-.04.09-.12.21-.14.29,0,.04-.01.13-.01.14,0,0-.04,0-.06.02-.15.12.29.29.36.35.05.04.08.12.12.17.11-.05.23-.09.35-.13.08-.04.18-.08.25-.12.05-.03.12-.1.15-.11.05-.02.21-.01.23-.03.03-.03,0-.03-.02-.04-.04-.02-.1-.02-.13-.06.06-.11.17-.09.24-.13.03-.02.09-.1.13-.13.27-.21.58-.52.87-.68.25-.14.37-.18.61-.35.1-.08.13-.06.25-.02.29.09.47.32.75.42.04.02.02-.06.07-.06,0,0,.1.01.12.02.08.02.1.1.15.12.09.03.23.02.33.05.06.02.14.1.19.11.31.06.61.13.92.17.23.03.46.07.69.09.06-.02,0-.15.05-.21.05-.05.14-.02.19-.05.04-.02.09-.13.14-.15.06-.03.2-.02.27-.06.05-.03.12-.15.17-.17.03-.02.08-.02.11-.03.07-.03.12-.1.22-.05.03.02.05.13.13.07l.64-.56c.12-.08.3-.09.34-.26.02-.07-.02-.1.01-.15.05,0,.14-.03.19-.03.06,0,.16.09.22.12.26.11.68.23.96.3.34.08.59.1.9.27.11.06.22.18.33.24.2.11.44.19.64.3.05.03.14.09.12.16-.1-.05-.21-.06-.32-.07-.03.1.23.18.29.18.07,0,.08-.14.22-.08.05.02.04.07.07.11.11.16.46.49.65.54.1.03.15.03.25.07.54.17.99.17,1.55.11.16-.02.31-.09.48-.07.03,0,.17-.08.2-.08.03,0,.17-.02.21-.02.17-.01.36-.01.53-.02.15,0,.72-.02.83.03.03.01,2.54,1.66,2.55,1.59.01-.01.11.05.14.05.04,0,.13-.03.16,0,.06.07-.19.05-.2.05-.04.04.42.03.6-.05,0,0,.03-.02.05-.02.04-.11.08-.23.13-.34-.08.03-.16.06-.24.09-.04.01-.05.05-.09.05-.15.03-.35-.05-.47-.14-.05-.03-.1-.07-.01-.08.04,0,.11,0,.16,0,.08.02.09.09.13.12.1.07.08-.09.12-.1.04-.01.23.12.26-.06.01-.1-.15-.26-.02-.21.09.03.12.09.14.11.01.01.06,0,.1,0,.06-.14-1.34-1.41-1.58-1.59-.02-.02-.1-.02-.1-.03,0,0,0-.06-.02-.1-.06-.1-.31-.03-.42-.04-.06,0-.1-.05-.14-.05-.08,0-.2.03-.28,0-.04-.01-.25-.14-.41-.26-.03.05-.11.1-.12.11,0,.04.25.24.13.27-.02,0-.15-.04-.2-.05-.02,0-.18-.02-.19-.02-.06.01-.07.2-.15.24-.02.01-.27.05-.32.06-.14.01-.32-.05-.44-.13-.16-.12.06-.12.11-.14.16-.06.32-.14.49-.19.12-.03.29-.04.38-.08.03-.01.15-.1.23-.13-.08-.06-.13-.12-.13-.14.07.02.73-.14.79-.14.07,0,.16-.02.24-.01.09,0,.32.25.38.27.07.01.21.12.27.15.26.13.32.21.57.32.08.03.14.09.21.12.06.02.13.02.19.05.08.04.17.01.24-.09.01-.02.24-.05.29-.06.16-.05.36-.23.47-.35.07-.08.16-.14.05-.23ZM91.82,65s.04.04.07.05c.32.13.66.22.96.39.23.13.44.27.65.42.06.04.15.05.15.12,0,.04-.03.28-.04.3-.03.04-.15.04-.19.02-.03-.01-.09-.11-.12-.14-.03-.02-.14-.11-.17-.13-.19-.11-.44-.21-.64-.3-.12-.05-.42-.16-.47-.28-.02-.04.02-.06,0-.1-.03-.05-.09-.03-.13-.05-.02-.01-.04-.06-.06-.08-.07-.05-.15-.07-.19-.16-.04-.1.14-.08.19-.07ZM86.56,57.45c-.32-.22-.39-.21-.61-.56-.02-.03-.1-.06-.11-.08-.12-.2-.25-.41-.39-.6-.04-.06-.09-.16-.08-.24,0-.04.05-.05.05-.09.02-.12-.05-.54.05-.59.12-.06.14.08.19.15.02.02.02.02.04,0,.02-.02.13-.2.13-.23,0-.08-.04-.2-.01-.29.03-.03.22.1.26.11.05.05.06.17.1.23.02.03.08.07.1.1.1.14.12.35.1.52.14.17.23.41.36.59.04.05.1.09.14.14.14.18.28.37.4.56.16.27.32.52.51.77.08.1.2.2.27.31.08.04.13-.11.25-.08.08.02.26.38.32.47.07.1.16.19.23.29.02.03.01.07.03.09.01.02.08.03.07.08-.06,0-.13-.04-.17-.08-.14-.11-.35-.23-.52-.33-.13-.08-.3-.11-.41-.19-.14-.11-.12-.07-.26-.15-.04-.02-.1-.09-.15-.12-.03-.02-.09-.02-.1-.06.05-.03.24.11.24-.02,0-.22-.32-.2-.46-.26-.2-.1-.37-.32-.55-.45ZM77.62,62.59s-.21-.07-.25-.09c-.03-.01-.2-.15-.21-.17,0-.04.13-.06.11-.18-.02-.08-.13-.05-.18-.07-.14-.03-.36-.23-.48-.32-.04-.02-.21-.12-.22-.13-.04-.06.11-.09.1-.15-.01-.15-.27-.13-.37-.09-.04.02-.1.06-.14.09-.36.18-.77.25-1.16.37-.12.04-.74.23-.79.3-.07.1.02.14,0,.18-.02.07-.41.14-.49.19-.08.01-.07-.08-.04-.13.02-.05.1-.08.11-.14.03-.13-.11-.56-.04-.64.02-.02.3-.07.37-.09.15-.06.23-.21.37-.27.25-.13.6-.21.87-.35.17,0,.18.05.05.14-.15.1-.3.19-.44.31-.06.05-.14.07-.21.09-.04.08-.25.17-.1.23.1-.06.23-.09.32-.13.14-.07.36-.25.49-.29.11-.04.27-.05.38-.1.15-.06.28-.21.43-.28.34-.15.76-.04,1.11.05.07.02.12.07.19.07.14.02.14-.04.24-.07.14-.04.22-.04.33.05.12.09.25.25.35.33.03.02.08.02.11.04.12.06.19.12.34.09-.02.31-.16.06-.23.04-.06-.02-.2,0-.27-.02-.02.24.35.18.43.31.13.24-.27.3-.28.51.08.08.36-.25.4-.26.05-.02.07.04.09.03.03-.02.05-.12.1-.15.03-.02.06-.02.09-.04.07-.05.14-.1.21-.15.02-.02.09,0,.09.02,0,.02-.13.19-.15.22-.1.14-.23.27-.3.44-.07.08-.23-.01-.24.12,0,.07.09.14-.03.16-.11.03-.35.04-.48.04-.09,0-.28.01-.36,0-.09-.02-.05-.11-.06-.12,0,0-.13,0-.16,0ZM94,64.58c-.35.09-.87-.12-1.18-.29-.18-.1-.37-.16-.56-.3-.08-.06-.24-.23-.31-.26-.04-.01-.29-.07-.33-.06-.04,0-.25.1-.29.12-.04.02-.06.07-.1.09-.13.06-.36.1-.51.13-.3.08-.61.15-.91.21-.2.04-.55.15-.73.16-.29.01-.42-.09-.76.02-.2.07-.48.2-.7.19-.06,0-.12-.03-.18-.03-.08,0-.03.07-.05.08-.02.02-.28.02-.33.02-.06,0-.13-.04-.19-.06-.09-.03-.56-.24-.62-.28-.04-.03-.05-.08-.11-.11-.16-.08-.4-.13-.57-.21-.02-.01-.04-.05-.09-.08-.48-.25-1.11-.48-1.63-.65-.12-.04-.39-.09-.22.09l.4.12c.08.05.11.09-.01.08-.29-.02-.83-.25-1.11-.37-.13-.05-.4-.22-.53-.17-.03.01-.05.05-.09.05-.1.02-.34-.07-.44.02-.02.02-.02.05-.03.08-.04.07-.41.18-.51.24-.22.13-.49.33-.69.49-.08.07-.23.24-.31.28-.35.19-.83.33-1.22.34-.26,0-.38-.09-.6-.18-.17-.07-.51-.22-.69-.26-.1-.02-.23-.01-.33-.03-.13-.02-.15-.04-.29-.05-.12,0-.2-.11-.29-.16-.06-.03-.14-.04-.2-.07-.11-.05-.18-.15-.3-.07-.05.03-.06.08-.1.11-.04.04-.1.06-.14.09-.03.02-.05.09-.09.09-.11,0-.44-.02-.52,0-.11.03.02.2-.01.26-.13.09-.25.18-.37.28-.07.06-.16.19-.23.23-.06.03-.13.03-.18.06-.08.04-.16.19-.24.25-.04.03-.1.04-.12.07-.03.04-.02.1-.08.12-.09.03-.19-.05-.28-.07-.06,0-.13,0-.19,0-.07,0-.24-.02-.3-.04-.04-.01-.04-.06-.03-.09.02-.08.18-.12.2-.17.03-.06,0-.23.04-.29.1-.04.25-.27.32-.3.04-.02.08,0,.13-.03.02-.01.3-.27.33-.29.08-.09.11-.24.28-.22v.07c.18.03.17-.21.27-.25.05-.02.09,0,.14-.02.13-.05.31-.11.43-.17.29-.13.58-.44.91-.43.08,0,.15.03.23.02.03,0,.02-.04.07-.05.47-.09.92.05,1.35,0,.06,0,.06-.05.08-.05.08-.02.19.02.27,0,.04-.01.06-.05.09-.07.14-.06.36-.13.48-.23.04-.03.04-.07.07-.1.07-.07.22-.16.22-.26,0-.13-.1.03-.16.04-.03,0-.06,0-.06-.04,0-.03.15-.24.18-.27.08-.09.09-.06.15-.17.05-.08.11-.22.2-.26.04-.02.08.02.13,0,.07-.02.24-.22.26-.3.01-.07-.04-.06.03-.15.06-.08.14-.09.21-.14.11-.08.16-.19.31-.24.33-.11.77-.19,1.12-.17.09,0,.19.05.28.05.1,0,.18-.02.28-.02.16.01.33.09.5.1.67.05,1.38.02,2.05.09.25.03.46.13.68.16.07.01.16,0,.23,0,.13.02.26.06.41.05.14,0,.59-.12.72-.17.21-.08.39-.24.61-.28.05,0,.12.01.17-.01.03-.01.12-.12.17-.15.05-.03.38-.22.41-.23.07-.02.16.04.22,0,.03-.02.08-.12.12-.15.02-.02.07-.03.1-.06.03-.04.02-.1.03-.11,0,0,.07.01.11-.03.01-.02.05-.14.05-.16,0-.08-.08-.06-.13-.09-.5-.24-.9-.02-1.4-.11-.33-.06-.54-.07-.88-.08-.08,0-.16.05-.22-.05,0-.03.15-.06.18-.07.03-.02.01-.02,0-.04-.03-.05-.21-.08-.27-.1-.33-.13-.65-.28-.94-.48-.23-.15-.6-.4-.79-.58-.02-.02-.16-.17-.17-.19-.02-.05-.01-.1-.03-.13-.01-.02-.05-.02-.07-.07-.03-.07-.1-.46-.1-.54,0-.07.15,0,.18.03.14.09.1.23.13.37.04.23.14-.04.21-.02.04,0,.15.16.2.19.05.04.1.06.1-.03,0-.12-.2-.22-.18-.28.03-.1.3.08.37.09.08.01.23-.02.27,0,.04.01.09.1.14.13.3.14.62.34.92.47.08.04.23.05.27.12.02.03.02.08.03.09.04.03.26.06.34.09.2.07.31.22.46.34.05.04.11.05.15.08.05.04.11.17.12.18,0,0,.11-.04.12-.05.02-.02,0-.1.03-.1.02,0,.14.05.16.07.04.03.04.08.06.1.03.03.14.02.19.04.13.05.31.24.43.3.06.02.12.02.17.04.15.06.2.18.43.19.13,0,.26.02.39.02.2.01.63-.05.75.15.09.15.16.35.24.5.03.06.28.35.32.37.02.01.07,0,.11.02.05.03.07.1.1.14.03.04.12.09.12.15,0,.08-.42.4-.5.46-.04.03-.09.03-.13.05-.04.03-.09.11-.13.13-.08.05-.28.06-.36.05-.25-.04-.48-.07-.72-.19-.04-.02-.23-.15-.24-.15-.07-.01-.39,0-.48.02-.16.02-.12.18-.17.29-.02.04-.24.4-.26.42-.06.05-.11.05-.16.14-.06.11-.02.16-.03.23-.01.07-.21.4-.27.46-.08.09-.22.14-.25.26-.01.04,0,.08-.02.12-.02.04-.28.3-.24.34.18-.02.36.01.54-.04.06-.02.08-.07.11-.08.05-.01.1,0,.15,0,.05-.01.12-.08.2-.1.32-.08.62,0,.96-.14.12-.05.24-.17.37-.16.05,0,.09.06.15.04-.02-.26.23-.15.38-.16.13,0,.27-.08.39-.09.12-.01.24.03.36.03.23,0,.64-.05.84.03.05.02.12.09.17.12.08.04.21.04.29.08.05.03.08.08.14.11.14.07.29.11.44.21.19.13.44.41.63.5.08.04.15.03.23.11.08.09,0,.14.05.22.08.13.25.09.31.13.12.08-.19.23-.25.25Z"/>
    </g>
    <g>
      <path class="cls-1" d="M70.42,64.96s0,0,0,0c-.02-.02-.05-.03-.07-.05l.07.05Z"/>
      <path class="cls-1" d="M76.1,54.01c.06-.01.13-.03.19-.04,0-.01-.06,0-.19.04Z"/>
      <path class="cls-1" d="M73.68,55.21h.01s0,0-.01,0Z"/>
      <polygon class="cls-1" points="98.05 58.42 98.05 58.42 98.12 58.47 98.05 58.42"/>
      <path class="cls-1" d="M98.68,60.63c0-.11-.02-.22-.04-.34-.02-.11-.02-.22-.05-.33-.05.09-.1-.13-.18-.35l.05-.04c-.19-.41-.19-.5-.19-.59,0-.04,0-.09-.03-.17-.03-.08-.08-.21-.2-.39l-.15-.1c-.12-.16-.2-.26-.24-.34-.05-.08-.06-.13-.09-.19-.02-.06-.05-.11-.11-.19-.06-.08-.16-.19-.33-.33.11.13.11.19.05.16-.06-.03-.18-.12-.3-.29l.11.04c-.16-.17-.23-.21-.33-.33.12.08.11,0-.13-.25l.21.11-.26-.19c-.09-.06-.18-.12-.27-.18-.16-.2-.41-.4-.62-.57-.22-.17-.42-.32-.48-.41,0,0-.05-.04-.14-.1-.08-.06-.2-.14-.32-.22-.25-.16-.53-.31-.66-.34.21.05-.28-.25-.11-.23-.27-.08-1.01-.4-1.28-.58l.06.02c-.13-.07-.26-.13-.39-.19-.13-.05-.25-.1-.38-.15-.24-.1-.49-.17-.72-.24-.47-.14-.93-.26-1.43-.43.03.08-.51-.09-.39.03-.27-.04-.52-.1-.76-.15-.24-.06-.46-.12-.66-.16-.2-.04-.38-.08-.54-.08-.16,0-.29.02-.4.08-.49-.05-.58-.12-.83-.16h.12c-.93-.05-1.2-.05-1.89-.06-.17.02-.27.06-.39.09-.27,0-.53.01-.79.02.03-.01-.02-.03-.22-.04-.04.02-.11.03-.17.04,0,0-.02,0,0-.01-.16.02-.24.04-.26.04-.31.02-.61.05-.91.09-.03,0-.05-.01-.05-.02-.29.04-.56.09-.81.14-.6.1-1.19.22-1.77.36.03,0,.05-.02.08-.03-.22.06-.44.11-.66.18,0-.03.09-.07.21-.1.12-.03.27-.06.37-.09-.82.08-1.59.52-2.51.76l-.17.12h-.06s-.17.15-.3.21c-.15,0-.04-.13-.48.06-.37.1-.95.48-1.36.76.24-.12.18-.05.09.02-.21.11-.35.14-.49.26l-.05-.04s-.1.11-.22.2c-.14.11-.3.23-.33.27-.15.03.27-.25.3-.32-.4.27-.49.35-.58.42-.05.04-.1.07-.18.14-.08.07-.19.17-.38.32-.34.39.12,0-.02.21-.16.16-.31.32-.45.5-.15.17-.3.36-.48.54l.16-.08c-.05.07-.1.14-.14.21-.67.86-1.13,1.8-1.36,2.77-.02.05-.03.1-.05.16-.01.06-.02.13-.03.21-.07.37-.1.75-.1,1.13,0,.13,0,.26.01.39,0,.16,0,.33.01.5,0,.11.01.22.03.33.02.11.04.21.05.32.06-.09.09.13.17.34l-.05.04c.08.21.13.33.15.41.02.08.02.13.02.17,0,.09-.01.18.19.56.05.04.1.07.15.1.12.16.18.26.22.34.04.08.06.13.08.19.04.11.08.24.4.54-.1-.13-.1-.18-.04-.16.07.09.13.18.2.27h-.03c.06.05.1.1.14.14.05.06.1.12.16.19-.1-.08-.11.01.12.25l-.21-.12c.17.13.34.27.51.4.07.1.17.2.27.31.1.1.22.2.32.29.21.18.4.33.45.43,0,0,.05.04.13.11.08.06.19.15.31.23.24.16.51.33.64.36-.21-.06.27.26.09.23.26.1.99.42,1.24.62l-.06-.02c.13.08.25.14.38.2.12.06.25.12.37.16.24.09.47.18.71.25.23.07.46.15.69.22.12.04.23.08.35.12.12.04.24.08.36.13-.03-.08.5.11.39-.02.53.09,1,.24,1.39.34.2.05.37.09.53.1.15,0,.28,0,.38-.06.11.02.22.03.33.05.07.01.13.03.18.04.11.03.19.07.32.09h-.12c.91.07,1.18.08,1.86.11.15-.01.24-.04.35-.07.08,0,.16,0,.23,0,.2,0,.4,0,.59,0-.04.01,0,.03.21.05.04-.02.1-.03.16-.04,0,0,0,0,.01,0,0,0,.01,0,0,.01.03,0,.05,0,.08,0,.08,0,.16,0,.24,0,.17,0,.34,0,.51-.03.09-.01.18-.03.28-.05.06,0,.1.01.11.03.44-.05.83-.12,1.19-.2-.03.03-.03.05.19,0,.02.08-.23.07-.09.12.49-.08.82,0,1.41-.15l.04.06c.19-.07.38-.11.56-.15.18-.04.36-.08.53-.11.34-.07.64-.14.88-.28.1-.04.18-.07.25-.09.07-.02.13-.04.18-.05.1-.03.18-.03.25-.04.15-.01.3-.05.67-.28l.34-.08c.17-.08.22-.13.27-.19.05-.05.11-.11.3-.19,0,.06.47-.24.29-.07.11-.05.21-.11.31-.17.1-.06.2-.14.3-.21.2-.14.38-.31.58-.48.38-.35.78-.74,1.24-1.16.05-.14.18-.32.31-.49.1-.14.19-.27.24-.37.16-.17.3-.35.44-.53,0,.02-.01.03-.02.05-.03.06-.09.14-.1.13v.1c.25-.27.4-.56.53-.86,0,0,0,0,0,0,.74-1.15,1.13-2.39,1.13-3.68,0-.05,0-.11,0-.16,0-.03.01-.06.02-.1.02-.11.02-.21.04-.33.03-.22.02-.45.01-.68ZM97.54,62.12c-.02.11-.04.23-.07.34-.05.14-.1.3-.14.44-.06.15-.11.3-.14.4-.04.1-.06.17-.06.17-.21.51-.42.93-.65,1.32-.23.39-.45.75-.72,1.11-.22.3-.46.59-.75.89-2.42,2.09-6.35,3.45-10.78,3.45-1.37,0-2.7-.13-3.94-.37-.58-.15-1.18-.31-1.75-.52-1.2-.41-2.33-.92-3.39-1.41-.06-.05-.24-.12-.25-.11-.61-.37-1.18-.79-1.68-1.28,0,0-.03-.03-.08-.08-.05-.05-.13-.12-.22-.22-.09-.1-.2-.21-.31-.35-.06-.07-.12-.14-.18-.21-.06-.08-.12-.16-.18-.24-.24-.33-.49-.73-.71-1.14-.18-.35-.33-.71-.46-1.04-.12-.45-.18-.91-.18-1.38,0-.28.02-.55.07-.82.18-.98.62-1.94,1.26-2.76.45-.59.98-1.12,1.56-1.56.58-.45,1.2-.81,1.83-1.1h.14s.2-.07.36-.2c.16-.12.33-.24.4-.22.09-.06.18-.12.28-.17.09-.02.28-.07.14.01.28-.11.28-.13.47-.23l.32-.05c.56-.17,1.08-.35,1.61-.5.26-.08.54-.15.82-.22.14-.03.28-.06.43-.09.15-.03.3-.05.45-.07.75-.05,1.82-.16,2.91-.19,1.09-.04,2.21-.01,3.02.06.57.04,1.16.13,1.76.27.3.07.59.16.89.24.29.1.59.19.88.31.29.11.58.23.86.34.28.13.56.24.84.38.28.12.54.26.81.39.27.13.53.26.79.39.03.03.1.06.16.08,2.25,1.49,3.62,3.5,3.62,5.71,0,.07,0,.14,0,.21,0,0,0,0,0,.01Z"/>
    </g>
  </g>
</svg>