<?xml version="1.0" encoding="UTF-8"?>
<svg id="Layer_5" xmlns="http://www.w3.org/2000/svg" version="1.1" viewBox="0 0 285.2 31.1">
  <!-- Generator: Adobe Illustrator 30.2.1, SVG Export Plug-In . SVG Version: 2.1.1 Build 1)  -->
  <defs>
    <style>
      .st0 {
        fill: #231f20;
      }
    </style>
  </defs>
  <g>
    <path class="st0" d="M17.9,25.3h0c.5-.5,1-1.5,1.1-2.2h0s-4.8,0-4.8,0h-.3c.1.7.6,1.7,1,2.2H1.8l.5-.6c.4-.5.6-1,.8-1.6l3.2-14.3c.2-.8,0-1.6-.2-2.3h21c-.3.7-.4,1.6-.2,2.4l3.1,14.3c.1.6.4,1.1.8,1.6l.5.6h-13.4,0ZM16.5,18.6h0c.8,0,1.4-.7,1.2-1.5l-1.2-4.4-1.2,4.4c-.2.8.4,1.5,1.2,1.5Z"/>
    <path class="st0" d="M43.4,18.1h6.4c.8,0,1.7-.1,2.5-.4h0v7.9h0c-.8-.2-1.6-.4-2.4-.4h-18.4v-.2c.5-.7.7-1.5.7-2.3v-13.8c0-.9-.3-1.8-.7-2.5h12.7c-.5.7-.7,1.6-.7,2.5v9.2h0Z"/>
    <path class="st0" d="M71.2,6v9.1h0c-.6-.2-1.3-.4-2-.4h-3.9v7.7c0,1,.3,1.9.7,2.8h-12.8c.5-.8.7-1.8.7-2.8v-7.6h-4c-.6,0-1.2,0-1.7.3h-.3c0,0,0-9.1,0-9.1h.3c.6.3,1.1.4,1.7.4h19.2c.7,0,1.3-.1,2-.4h0Z"/>
    <path class="st0" d="M82.7,19h6.7c.6,0,1.3-.1,1.9-.4h0v6.6h-19.5v-.2c.5-.7.7-1.5.7-2.3v-13.8c0-.9-.3-1.8-.7-2.5h19.5v6.6h-.1c-.6-.3-1.1-.4-1.7-.4h-6.7v1.2h4.6c.7,0,1.3-.1,2-.4h0s0,4.7,0,4.7h0c-.6-.2-1.3-.4-2-.4h-4.6v1.2h0Z"/>
    <path class="st0" d="M117.4,25.3h-9.4c-1.7,0-3.2-1-3.9-2.5v-.2c0,0-1.5-3.3-1.5-3.3v3.1c0,1,.3,2,.9,2.9h-11.5v-.2c.5-.7.7-1.5.7-2.3v-13.8c0-.9-.3-1.8-.7-2.5h15.1c6.2,0,9.3,2.2,9.3,6.6h0c0,2.5-1.4,4.2-2.8,5.3l1.7,4c.5,1.1,1.2,2.1,2,3h0ZM102.6,13.1v2.7h.8c.1,0,1.7,0,1.7-1.3s-1.6-1.3-1.7-1.3h-.8Z"/>
  </g>
  <g>
    <path class="st0" d="M189.4,22.4c.7,0,1.2,0,1.7-.3s.8-.5,1-.8.4-.7.5-1.2.1-.9.1-1.4v-.5h3.5v.5c0,2.2-.6,4-1.7,5.1-1.2,1.2-2.9,1.8-5.1,1.8s-3.8-.7-5.1-2c-1.3-1.3-1.9-3.2-1.9-5.7v-4.2c0-1.2.2-2.3.5-3.2.3-1,.8-1.7,1.4-2.4s1.3-1.2,2.2-1.5,1.8-.5,2.9-.5,2.1.2,3,.5c.9.3,1.6.8,2.2,1.4s1,1.3,1.3,2.2c.3.9.4,1.8.4,2.9v.5h-3.5v-.5c0-.4,0-.9-.2-1.3-.1-.4-.3-.8-.5-1.2-.3-.3-.6-.7-1-.9s-1-.3-1.6-.3-1.1.1-1.5.3c-.4.2-.8.5-1.1.9-.3.4-.5.8-.6,1.3s-.2,1-.2,1.6v4.7c0,.6,0,1.2.2,1.7s.3,1,.6,1.3c.3.4.6.7,1,.9.4.2,1,.3,1.6.3h0Z"/>
    <path class="st0" d="M218,6.5v12.2c0,2.1-.6,3.8-1.7,5-1.1,1.2-2.8,1.8-5,1.8s-3.9-.6-5-1.8-1.7-2.9-1.7-5V6.5h3.5v12.2c0,1.1.3,2,.8,2.6.5.6,1.3.9,2.4.9s1.9-.3,2.4-.9c.5-.6.8-1.5.8-2.6V6.5h3.5Z"/>
    <path class="st0" d="M225.8,6.5h3.6l3.7,16.9h.5l3.7-16.9h3.6l-4.2,18.7h-6.6l-4.2-18.7Z"/>
    <path class="st0" d="M249.3,6.5h11.8v3.4h-8.3v4.3h8v3.4h-8v4.3h8.6v3.4h-12.1V6.5h0ZM255.3.9h3.6l-2.3,3.6h-2.7l1.4-3.6Z"/>
    <path class="st0" d="M271.2,6.5h11.8v3.4h-8.3v4.3h8v3.4h-8v4.3h8.6v3.4h-12.1V6.5h0Z"/>
  </g>
  <g>
    <g>
      <g>
        <path class="st0" d="M161,18.7c0,0,0,.2,0,.2,0,0-.2.2-.4.2h0c-.4,0-.8,0-1.3-.3-.2,0-.3-.2-.4-.3,0,0-.1,0-.2-.1,0,0-.2-.1-.2-.2s-.2-.1-.3-.2h0c0,0,.2.1.3.2s.2.1.2.2c0,0,.1,0,.2.1.1,0,.3.2.4.3.5.2.8.3,1.3.3h0c.2,0,.3,0,.4-.2,0,0,0-.1,0-.2s0,0,0,0c0,0,0,0,0,0-.3-.1-.5-.3-.8-.5-.6-.4-1.2-.8-1.9-1-.2,0-.5,0-.8,0,0,0,0,0-.1,0-.2,0-.3,0-.5,0-.2,0-.4,0-.6,0-.2,0-.3,0-.4,0-.2,0-.4,0-.6.2-.2,0-.3,0-.5,0,0,0-.2,0-.3,0h0c.1,0,.2,0,.3,0,.2,0,.3,0,.5,0,.2,0,.4-.1.6-.2.2,0,.3,0,.4,0,.2,0,.4,0,.6,0,.2,0,.3,0,.4,0,0,0,0,0,.1,0,.3,0,.5-.1.8,0,.7.3,1.3.6,1.9,1,.3.2.6.4.8.5,0,0,0,0,0,0,0,0,0,0,0,.1h0Z"/>
        <path class="st0" d="M161,18.7c0,0,0,.1,0,.2,0,.1-.3.2-.4.2h0c-.4,0-.8,0-1.3-.3-.2,0-.3-.2-.4-.3,0,0-.1,0-.2-.1,0,0-.2-.1-.2-.2s-.2-.1-.3-.2h0c-.1,0-.3,0-.4.2,0,0,0,0,0,0,0,0,0,0-.1,0-.1,0-.3.2-.4.2-.1,0-.2,0-.4,0,0,0,0,0,0,0-.2,0-.5,0-.6.2-.3.1-.6.2-.9.4-.3.2-.6.3-1,.4h0c-.2,0-.5.2-.7.2h0c-.1,0-.2,0-.4,0-.2,0-.4-.2-.5-.3,0,0-.2-.1-.3-.2,0,0-.1,0-.2,0,0,0-.1,0-.2,0,0,0-.1,0-.2-.1,0,0-.1,0-.2-.2-.3-.2-.6-.4-1.1-.5-.2,0-.5-.2-.7-.2,0,0-.2,0-.3,0-.2,0-.3-.1-.4-.2s-.3-.2-.4-.2h0c-.4,0-.7.3-1,.5,0,0,0,0,0,0-.2.1-.3.2-.4.4-.2.2-.4.4-.7.6-.3.1-.6.1-.9.1h-.1c-.4,0-.7-.1-1-.2,0,0-.2,0-.2,0-.2,0-.4-.1-.5-.2,0,0-.2,0-.2-.1-.1,0-.2-.2-.4-.2,0,0,0,0,0,0h0c0,0-.2,0-.2.1,0,0,0,0,0,0,0,0-.2,0-.3.1-.1,0-.3.1-.4.2,0,0-.1,0-.2.1-.1.1-.3.2-.5.4-.3.2-.7.4-.9.6,0,0,0,0-.1,0,0,0-.1,0-.2,0-.1,0-.2-.2-.2-.3h0c0-.3.4-.7.6-1h0c.2-.2.4-.4.7-.5,0,0,.1,0,.2,0,.1,0,.3-.1.4-.2.1,0,.2-.1.3-.2,0,0,0,0,.2,0,.2-.1.4-.2.7-.3.6-.2,1-.2,1.2-.1,0,0,0,0,.1,0,0,0,.1,0,.2,0,.1,0,.3,0,.4,0h0c.3,0,.4-.2.6-.4.2-.2.3-.5.4-.7.1-.2.2-.5.4-.7.4-.5,1.2-.8,1.8-.8h.3c.2,0,.4,0,.6,0,.2,0,.4,0,.6.1.1,0,.3,0,.4,0,.1,0,.3,0,.4,0,.2,0,.3,0,.5,0,.1,0,.2,0,.3,0,.2,0,.3,0,.5,0,.6,0,1.1,0,1.6-.1.4-.2.9-.4,1.4-.7,0,0,.2-.1.3-.3h0s0,0,0,0h0c-.1,0-.2,0-.4,0,0,0-.2,0-.3,0-.2,0-.5,0-.7,0-.2,0-.4,0-.6,0-.7,0-1.3-.2-2.1-.9-.4-.3-.5-.5-.8-1-.2-.4-.4-1-.2-1.5h0s0,0,0,0h0c.1,0,.3.2.4.3,0,0,0,0,.1.1.1.1.3.2.4.3,0,0,0,0,.1,0,.2.2.4.3.6.4.1,0,.3.2.4.3,0,0,.2.1.3.2.3.2.5.3.8.5.1,0,.2.1.3.2h0c0,0,.2,0,.3,0,.2,0,.3.1.4.2,0,0,.1,0,.2.1.4.2.7.4,1.1.5.2,0,.3,0,.5,0h.2c.1,0,.2,0,.3,0,.3,0,.4.3.6.5,0,.1.1.2.2.3,0,.1.2.2.3.3,0,0,.1.1.2.2.1.2.1.3,0,.5-.3.3-.8.4-1.2.4-.2,0-.4,0-.6-.1,0,0-.2-.1-.3-.2,0,0,0,0,0,0q0,0-.2,0s0,0,0,0c0,0,0,0-.2,0h0,0c0,.2-.2.5-.4.8,0,0,0,.2-.1.2,0,0,0,.2-.1.2,0,.2-.1.2-.3.4h0c.1,0,.2,0,.3,0,.1,0,.3,0,.5,0,.2,0,.4-.1.6-.2.2,0,.3,0,.4,0,.2,0,.4,0,.6,0,.2,0,.3,0,.5,0,0,0,0,0,.1,0,.3,0,.5-.1.8,0,.7.3,1.3.6,1.9,1,.3.2.6.4.8.5,0,0,0,0,0,0,0,0,0,0,0,0h0Z"/>
        <path class="st0" d="M153.5,19.7c.2,0,.4,0,.6-.1h0c.4-.1.7-.3,1-.5.3-.1.6-.3.9-.4.2,0,.4-.1.6-.2,0,0,0,0,0,0h0s0,0,0,0c.2,0,.5,0,.6,0,0,0,.1,0,.2,0,0,0,.2,0,.2,0,0,0,.2,0,.2.2,0,0,0,0,.1,0,.1,0,.3.3.4.4.2.3.3.3.6.5,0,0,0,0,.1,0,0,0,.2,0,.2.2,0,0,.2.1.2.2,0,0,0,0,0,0,0,0,.2,0,.2.2,0,0,.1,0,.2.1,0,0,0,0,.2.1,0,.2,0,.3-.2.5,0,0,0,0,0,0,0,0-.2,0-.3,0h-.2c0,0-.1,0-.2,0,0,0-.1,0-.2,0,0,0,0,0,0,0-.6-.3-1.1-.8-1.8-1.3h0c0-.1-.1-.2-.2-.2,0,0-.2,0-.3,0-.2,0-.4,0-.6,0-.1,0-.2,0-.3,0-.6,0-1.2,0-1.9,0-.2,0-.5,0-.7,0h.1,0Z"/>
        <polygon class="st0" points="158.1 18 158.1 18 158.1 18 158.1 18 158.1 18 158.1 18 158.1 18 158.1 18 158.1 18 158.1 18 158.1 18"/>
        <path class="st0" d="M158.1,18h0c-.1,0-.2,0-.4.2,0,0,0,0,0,0,0,0,0,0-.1,0-.1,0-.3.2-.4.2,0,0-.2,0-.3,0h0c.1,0,.3,0,.4,0,.2,0,.3-.1.4-.2,0,0,0,0,.1,0s0,0,0,0c.1,0,.2-.2.4-.2h0Z"/>
        <path class="st0" d="M157.8,15.2c.1.2.1.3,0,.5-.3.3-.8.4-1.2.4h0c-.2,0-.3,0-.5-.1-.1,0-.2-.1-.3-.2,0,0,0,0,0,0q0,0-.2,0s0,0,0,0c0,0-.1,0-.2,0h0c0,0,.1,0,.2,0,0,0,0,0,0,0q.1,0,.2,0s0,0,0,0c0,0,.2.1.3.2.2,0,.4.1.6.1.4,0,.9-.1,1.2-.4.2-.2.2-.3,0-.5,0,0-.1-.1-.2-.2,0,0-.2-.2-.3-.3,0-.1-.1-.2-.2-.3-.1-.2-.2-.5-.6-.5-.1,0-.2,0-.3,0h0c.1,0,.2,0,.3,0,.3,0,.4.3.6.6,0,.1.1.2.2.3,0,.1.2.2.3.3,0,0,.1.1.2.2h0Z"/>
        <path class="st0" d="M156.7,18.5h0s0,0,0,0h0Z"/>
        <path class="st0" d="M156.7,18.6s0,0,0,0c-.2,0-.4,0-.6.2-.3.1-.6.2-.9.4-.3.2-.6.3-1,.4h0c-.2,0-.4.1-.6.2h-.1c.2,0,.5,0,.7-.2h0c.4-.1.7-.3,1-.5.3-.1.6-.3.9-.4.2,0,.4-.1.6-.2,0,0,0,0,0,0h0Z"/>
        <path class="st0" d="M156.2,13.8h0c-.2,0-.4-.2-.5-.3,0,0,0,0,0,0-.2-.2-.3-.4-.5-.6h0c0,0,0-.2-.1-.2,0-.1-.1-.2-.2-.3-.2-.2-.3-.4-.5-.6,0,0-.2-.2-.2-.3-.4-.4-.7-.8-.9-1.2,0,0,0-.1-.1-.2,0,0-.1-.2-.2-.3,0-.2-.1-.3-.2-.4,0,0,0,0,0-.1,0-.1-.1-.2-.2-.3,0,0-.3,0-.4,0s0,.2,0,.3h0c0,.2,0,.4,0,.5,0,0,0,.1,0,.2,0,.3,0,.7.2,1.1.1.2.3.4.5.6,0,.1.2.2.3.4.4.6.8.8.9.9,0,0,0,0,0,0-.3-.2-.7-.7-.8-.8,0-.1-.2-.2-.3-.4-.2-.2-.4-.4-.5-.6-.2-.4-.3-.7-.2-1.1,0,0,0-.1,0-.2,0-.1,0-.3,0-.4h0c0-.2,0-.4,0-.4,0,0,.1,0,.2,0,0,0,.2,0,.2,0,.1,0,.2.2.2.3,0,0,0,0,0,.1,0,.1.2.3.2.4,0,0,.1.2.2.3,0,0,0,.1.1.2.2.4.5.8.9,1.2,0,0,.2.2.2.3.2.2.3.4.5.6,0,0,.2.2.2.3,0,0,0,.2.1.2h0c.2.2.3.5.5.6,0,0,0,0,0,0,.2.2.4.3.6.3h0Z"/>
        <path class="st0" d="M156.1,13.8h0,0c-.2,0-.3,0-.5,0-.4,0-.8-.3-1.1-.5,0,0-.1,0-.2-.1-.1,0-.2-.2-.4-.2,0,0-.2,0-.3,0h0c0,0,.2,0,.3,0,.2,0,.3.1.4.2,0,0,.1,0,.2.1.4.2.7.4,1.1.5.2,0,.3,0,.5,0h0Z"/>
        <path class="st0" d="M156.1,13.8h0c-.2,0-.3,0-.5,0-.4,0-.8-.3-1.1-.5,0,0-.1,0-.2-.1-.1,0-.2-.2-.4-.2,0,0-.2,0-.3,0,0,0-.4-.3-.9-.9,0-.1-.2-.2-.3-.4-.2-.2-.3-.4-.5-.6-.2-.4-.3-.7-.2-1.1,0,0,0-.1,0-.2,0-.1,0-.3,0-.4h0c0-.2,0-.4,0-.4s.3,0,.4,0c.1,0,.2.2.2.3,0,0,0,0,0,.1,0,.1.2.3.2.4,0,0,.1.2.2.3,0,0,0,.1.1.2.2.4.5.8.9,1.2,0,0,.2.2.2.3.2.2.3.4.5.6,0,0,.2.2.2.3,0,0,0,.2.1.2h0c.2.2.3.5.5.6,0,0,0,0,0,0,.2.1.3.3.5.3h0Z"/>
        <path class="st0" d="M155.3,15.9c0,.2-.2.5-.4.8,0,0,0,.2-.1.2,0,0,0,.2-.1.2,0,.2-.1.2-.3.4h0c.2-.2.2-.3.3-.4,0,0,0-.1.1-.2,0,0,0-.1.1-.2.2-.2.4-.5.4-.8h0Z"/>
        <polygon class="st0" points="155.3 15.8 155.3 15.9 155.3 15.9 155.3 15.8 155.3 15.8"/>
        <polygon class="st0" points="155.3 15.8 155.3 15.8 155.3 15.8 155.3 15.8 155.3 15.8 155.3 15.8"/>
        <path class="st0" d="M155.1,14h0c0,.1-.2.2-.3.3-.5.3-1,.6-1.4.7-.4.2-1,.2-1.6.1-.2,0-.3,0-.5,0-.1,0-.2,0-.3,0-.2,0-.3,0-.5,0-.1,0-.3,0-.4,0-.1,0-.3,0-.4,0-.2,0-.4,0-.6-.1-.2,0-.4,0-.6,0h-.3c-.6,0-1.4.3-1.8.8-.2.2-.3.4-.4.7-.1.2-.3.5-.4.7-.2.2-.3.4-.6.4h0c-.2,0-.3,0-.4,0,0,0-.1,0-.2,0s0,0-.1,0h0c0,0,0,0,0,0,0,0,.1,0,.2,0,.1,0,.3,0,.4,0h0c.3,0,.4-.2.6-.4.2-.2.3-.5.4-.7.1-.2.2-.5.4-.7,0-.1.2-.2.4-.3h0c.4-.3,1-.4,1.4-.4h.3c.2,0,.4,0,.6,0,.2,0,.4,0,.6.1.1,0,.3,0,.4,0,.1,0,.3,0,.4,0,.2,0,.3,0,.5,0,.1,0,.2,0,.3,0,.2,0,.3,0,.5,0,.6,0,1.1,0,1.6-.1.4-.2.9-.4,1.4-.7,0,0,.2-.1.2-.2,0,0,0,0,0,0h0Z"/>
        <path class="st0" d="M155,14.1h0c-.1,0-.2,0-.3,0,0,0-.2,0-.3,0-.2,0-.5,0-.7,0-.2,0-.4,0-.6,0-.7,0-1.3-.2-2.1-.9-.4-.3-.5-.5-.8-1-.2-.4-.4-1-.2-1.5h0c-.2.5,0,1.1.2,1.5.2.5.4.7.8,1,.8.7,1.5.8,2.1.9.2,0,.4,0,.6,0,.2,0,.5,0,.7,0,0,0,.2,0,.3,0,.1,0,.2,0,.4,0h0Z"/>
        <path class="st0" d="M153.5,12.8h0s0,0,0,0h0Z"/>
        <path class="st0" d="M153.5,12.8c-.1,0-.2,0-.3-.2-.3-.1-.5-.3-.8-.5,0,0-.2-.1-.3-.2-.1,0-.3-.2-.4-.3-.2-.1-.4-.2-.6-.4,0,0,0,0-.1,0-.2-.1-.3-.2-.4-.3,0,0,0,0-.1-.1-.1-.1-.3-.3-.4-.3h0s0,0,0,0h0s0,0,0,0h0c.1,0,.3.2.4.3,0,0,0,0,0,.1.1.1.3.2.4.3,0,0,0,0,.1,0,.2.2.4.3.6.4.1,0,.3.2.4.3,0,0,.2.1.3.2.3.2.5.3.8.5,0,0,.2,0,.3.1h0s0,0,0,0Z"/>
        <path class="st0" d="M153.4,19.7h0,0c-.1,0-.2,0-.3,0-.2,0-.4-.2-.5-.3,0,0-.2-.1-.3-.2,0,0-.1,0-.2,0,0,0-.1,0-.2,0,0,0-.1,0-.2-.1,0,0-.1,0-.2-.2-.3-.2-.6-.4-1.1-.5-.2,0-.5-.2-.7-.2,0,0-.2,0-.3,0-.2,0-.3-.1-.4-.2-.1,0-.3-.2-.4-.2h0c.2,0,.3.1.4.2s.3.2.4.2c0,0,.2,0,.3,0,.2,0,.5.1.7.2.4.2.8.3,1.1.5,0,0,.1,0,.2.2,0,0,.1,0,.2.1s.1,0,.2,0c0,0,.1,0,.2,0,0,0,.2.1.3.2.2.1.3.2.5.3.1,0,.2,0,.4,0h0Z"/>
        <path class="st0" d="M148.5,17.5h0c-.4,0-.7.3-1.1.5,0,0,0,0,0,0-.2.1-.3.2-.4.4-.2.2-.4.4-.7.6-.3.1-.6.1-.8.1h-.2c-.4,0-.7-.1-1-.2,0,0-.2,0-.2,0-.2,0-.4-.1-.5-.2,0,0-.2,0-.2-.1-.1,0-.2-.2-.4-.2h0c.1,0,.3.1.4.2,0,0,.2,0,.2.1.2,0,.4.2.5.2,0,0,.2,0,.2,0,.3.1.6.2,1,.2h.1c.3,0,.6,0,.9-.1.3-.1.5-.3.7-.6.1-.1.3-.3.4-.4,0,0,0,0,0,0,.3-.2.7-.5,1-.5,0,0,0,0,0,0Z"/>
        <path class="st0" d="M147.8,13.9c0,.1,0,.3,0,.5-.2.3-.5.4-.8.5h0c.3-.1.6-.2.8-.5.2-.3.1-.6-.2-.8-.3-.1-.6,0-.9,0,0,0,0,0-.1,0,0,0,0,0,.1,0,.3-.1.6-.1.9,0,.2,0,.3.2.3.3Z"/>
        <path class="st0" d="M147.7,14.4c0-.2.1-.3,0-.5,0-.1-.1-.2-.3-.3-.2-.1-.6,0-.9,0-.3.1-.2.4-.1.8,0,.1,0,.2,0,.3,0,0-.1-.2-.1-.3,0-.3-.1-.6,0-.7,0,0,0,0,.1,0,.3-.1.6-.1.9,0,.3.2.4.5.2.8-.2.3-.5.4-.8.5h0c.3,0,.6-.2.8-.5h0Z"/>
        <path class="st0" d="M147.8,13.9c0,.1,0,.3,0,.5-.2.3-.5.4-.8.5h0s0,0,0,0c-.2,0-.4,0-.5-.1,0,0,0-.2,0-.3,0-.4-.2-.7.1-.8.3-.1.6-.1.9,0,.2,0,.2.2.3.3h0Z"/>
        <path class="st0" d="M146.9,14.9h0s0,0,0,0h0s0,0,0,0h0c-.2,0-.3,0-.4-.2,0,.1.3.1.5.1h0s0,0,0,0Z"/>
        <path class="st0" d="M146.6,15.1h0c0,0-.2,0-.3,0h0c-.2.1-.3.2-.4.2,0,0,0,0-.1,0-.2,0-.4.2-.6.2h-.1c0,0-.2,0-.2,0,0,0-.2,0-.2-.1s0,0,0,0c-.2,0-.4-.1-.6-.2,0,0-.2,0-.3,0-.1,0-.3-.1-.4-.2-.1,0-.2-.1-.3-.2h0c.1,0,.2,0,.3.1.1,0,.3.1.4.2,0,0,.2,0,.3,0,.2,0,.4,0,.6.2,0,0,0,0,0,0,0,0,.2,0,.2.1,0,0,.2,0,.3,0h0c.2,0,.4,0,.6-.2,0,0,0,0,.1,0,.2,0,.3-.1.4-.2,0,0,0,0,0,0,0,0,.2-.1.3,0h0Z"/>
        <path class="st0" d="M146.6,15.1h0c-.1,0-.3.2-.4.3-.2.2-.3.4-.4.7-.1.2-.3.5-.4.7-.2.2-.3.4-.6.4h0c-.2,0-.3,0-.4,0,0,0-.1,0-.2,0s0,0,0,0h0s0,0,0,0,0,0,0,0h0s-.4,0-.4,0c-.2,0-.4-.1-.4-.2-.1-.1-.3-.3-.4-.5-.1-.2-.2-.3-.3-.4h0c0,0-.2,0-.2,0,0,0-.1,0-.2,0,0,0-.2,0-.3.1-.1,0-.2.1-.3.1-.2,0-.5,0-.7.2-.1,0-.2,0-.4.1h0s0,0,.1,0h0c0,0-.2,0-.3.1-.3,0-.5.1-.7,0-.1,0-.2,0-.3,0h0c0,0-.2,0-.3-.2,0-.3.1-.3.2-.4,0,0,0,0,0,0,0,0,.2-.1.4-.2.1,0,.2,0,.3-.1.1,0,.3-.2.5-.2,0,0,.2,0,.3-.1.2,0,.3-.2.5-.2.3-.1.6-.2.9-.3,0,0,0,0,.1,0,.1,0,.3,0,.4,0h0s0,0,.1,0c0,0,.1,0,.2,0h0c.1,0,.2,0,.3.2.1,0,.3.1.4.2,0,0,.2,0,.3,0,.2,0,.4,0,.6.2,0,0,0,0,0,0,0,0,.2,0,.2.1,0,0,.2,0,.2,0h.1c.2,0,.4,0,.6-.2,0,0,0,0,.1,0,.2,0,.3-.1.4-.2,0,0,0,0,0,0,0,0,.2-.1.3,0h0Z"/>
        <path class="st0" d="M144,17s0,0,0,0c0,0,0,0,0,0h0s-.4,0-.4,0c-.2,0-.4-.1-.4-.2-.1-.1-.3-.3-.4-.5-.1-.2-.2-.3-.3-.4h0c0,0,.2.2.3.4.2.2.3.4.4.5,0,0,.3.1.4.2,0,0,.4,0,.4,0h0Z"/>
        <path class="st0" d="M144,17.1h0c-.2,0-.6,0-1.2.1-.2,0-.4.2-.7.3,0,0,0,0-.2,0-.1,0-.2.1-.3.2-.1,0-.3.1-.4.2,0,0-.1,0-.2,0-.2.1-.5.3-.7.5h0c-.2.3-.6.6-.6,1h0c0-.4.4-.7.6-1h0c.2-.2.4-.4.7-.5,0,0,.1,0,.2,0,.1,0,.3-.1.4-.2.1,0,.2-.1.3-.2,0,0,0,0,.2,0,.2-.1.4-.2.7-.3.6-.2,1-.2,1.2-.1h0Z"/>
        <path class="st0" d="M144,17.1s0,0,0,0c0,0,0,0,0,0Z"/>
        <path class="st0" d="M142.6,14.8c0,0,.1,0,.2,0h0c0,0-.1,0-.2,0,0,0,0,0-.1,0h0s0,0,0,0h0s0,0,.1,0Z"/>
        <path class="st0" d="M142.7,18.2h0s0,0,0,0h0Z"/>
        <path class="st0" d="M142.7,18.2h0c0,0-.2,0-.2.1,0,0,0,0,0,0,0,0-.2,0-.3.1-.1,0-.3.1-.4.2,0,0-.1,0-.2.1-.1.1-.3.2-.5.4-.3.2-.7.4-.9.6,0,0,0,0-.1,0,0,0,0,0,0,0s0,0,0,0c-.1,0-.2-.2-.2-.4h0c0,.1,0,.3.2.3,0,0,0,0,.2,0,0,0,0,0,.1,0,.2-.2.6-.4.9-.6.2-.1.4-.2.5-.4,0,0,.1,0,.2-.1.1,0,.2-.2.4-.2,0,0,.2,0,.3-.1,0,0,0,0,0,0,0,0,.2-.1.2-.1h0Z"/>
        <path class="st0" d="M142.5,14.8h0c-.1,0-.3,0-.4,0,0,0,0,0-.1,0-.3,0-.6.2-.9.3-.2,0-.4.1-.5.2,0,0-.2,0-.3.1-.2,0-.3.1-.5.2,0,0-.2,0-.3.1-.1,0-.3,0-.4.2,0,0,0,0,0,0,0,0,0,0-.2.4h0c.1-.3.1-.3.2-.4,0,0,0,0,0,0,0,0,.2-.1.4-.2.1,0,.2,0,.3-.1.2,0,.3-.2.5-.2,0,0,.2,0,.3-.1.2,0,.3-.2.5-.2.3-.1.6-.2.9-.3,0,0,0,0,.1,0,.1,0,.3,0,.4,0h0Z"/>
        <path class="st0" d="M142.2,15.9c0,0,.1,0,.2,0h0c0,0-.1,0-.2,0,0,0-.1,0-.2,0,0,0-.2,0-.3.1-.1,0-.2.1-.3.1-.2,0-.4,0-.7.2,0,0-.2,0-.3,0,0,0,0,0-.1,0h0c.1,0,.2,0,.4-.1.2,0,.4-.2.7-.2,0,0,.2,0,.3-.1s.2,0,.3-.1.2,0,.2,0h0Z"/>
        <path class="st0" d="M140.5,16.5h0c0,0-.2,0-.3.1-.2,0-.4,0-.5,0s-.1,0-.2,0c-.1,0-.2,0-.3,0h0c0,0-.2,0-.3-.2h0c0,0,.2.1.3.2h0c0,0,.2,0,.3,0,.2,0,.4,0,.7,0,.1,0,.2,0,.3-.1h0Z"/>
        <polygon class="st0" points="138.8 16.5 138.8 16.5 138.8 16.5 138.8 16.5 138.8 16.5 138.8 16.5 138.8 16.5 138.8 16.5 138.8 16.5 138.8 16.5 138.8 16.5 138.8 16.5"/>
      </g>
      <path class="st0" d="M160.9,18.5c0,0-.1,0-.2,0,0,0,0,0,0,0,0,0,0-.2-.1-.2,0,0-.2,0-.2-.1-.2,0-.4-.3-.6-.4,0,0,0-.1-.1-.2,0,0-.1,0-.2,0,0,0,0,0,0,0,0,0-.2,0-.3,0-.1,0-.2-.2-.3-.2-.1,0-.4,0-.4-.2,0,0,0,0,0,0,0,0,0,0-.2,0-.3,0-.6,0-1,0-.2,0-.4,0-.5.1,0,0-.3,0-.3,0,0,0,0,0,0-.1s-.1,0-.2,0c0,0-.2-.1-.2-.1,0,0-.3,0-.3,0,0,0,0-.1,0-.2,0,0-.2,0-.1-.1,0,0,.1,0,.2-.1,0-.1,0-.4,0-.4,0,0,.2,0,.3,0,0,0,.2.1.3.2.3.2.8.2,1.2,0,0,0,0,0,.1,0,0,0,.1,0,.2,0,.1,0,.2-.3.3-.3,0,0,.2,0,.3,0,0,0,0-.2,0-.3,0,0,0-.2,0-.3,0,0-.2,0-.2,0,0,0-.1-.2-.2-.2,0,0-.2-.2-.2-.2,0,0,0,0,0,0,0,0,0-.2,0-.2,0-.1-.3-.4-.4-.4-.2,0-.6-.1-.8-.2,0,0-.2-.3-.3-.3,0,0,0,0,0-.1,0,0-.1-.2-.2-.3-.4-.5-.8-.8-1.2-1.2-.2-.2-.3-.4-.5-.7,0,0-.1-.2-.2-.2-.1-.2-.2-.4-.4-.6-.3-.3-.6-.5-.8-.9,0,0,0-.3-.2-.3s-.1,0-.2,0c0,0-.3-.1-.4,0,0,0-.3.4-.3.5,0,0,0,.2,0,.2v.3s0,0,0,0c0,0,0,.1,0,.2,0,0,0,.1,0,.2,0,0,0,.1,0,.2,0,0,0,0,0,0,0,0,0,0,0,0,0,0,.2.3.2.3,0,0,.1.2.1.2,0,0,.3.3.4.4.2.1,1,1,1,1-.1,0-1.5-.8-1.6-.9,0,0,0,0,0,0,0,0-.2,0-.3,0,0,0,0-.2,0-.3,0,0,0,0-.1,0-.1,0-.3,0-.4,0,0,0,0,0,0,0,0,0,0,0-.1,0,0,0,0,0,0-.1,0,0,0,0-.1,0s0-.2-.2-.2c0,0,0,0,0,0,0,0,0,.4,0,.5,0,0-.2,0-.2.1,0,.3,0,.6.2.9,0,.2.2.8.4,1,.2.2.4.1.6.2.2,0,.4.2.5.3.3.1.6.2.9.3.2,0,.4.1.7.2,0,0,0,0,.2,0,.2,0,.4,0,.6,0,0,0,.2,0,.2,0s.2,0,.3,0,.2,0,.3,0c.1,0,0,.3,0,.3,0,0,0,0,0,0-.2.2-.5.3-.8.4-.1,0-.3.1-.4,0,0,0,0,0-.1,0,0,0,0,.1,0,.2-.2.1-.4,0-.5,0,0,0,0,0,0,0,0,0-.3,0-.4,0,0,0,0,0,0,0,0,0,.2,0,.3,0,0,0,.2,0,.2-.1s0,0,0,0c0,0-.5,0-.6,0,0,0,0,0,0,0-.3,0-.6,0-.9,0-.2,0-.5,0-.7,0,0,0-.3,0-.4-.1h0c0,0-.2-.2-.2-.2,0,0-.2,0-.2,0h0s-.1,0-.1,0c0,0,0,0,0,0,0,0,0-.2,0-.2,0,0-.3,0-.4,0-.2,0-.3,0-.5,0,0,0-.2,0-.3,0-.1,0-.1-.2-.1-.4,0,0-.3-.2-.4-.3-.1,0,0-.1-.2-.3,0,0,0,0,0-.1,0,0,0,0,0,0,0,0,0,0-.2,0s-.1,0-.2,0,0,0,0,0c0,0-.2,0-.2,0,0,0,0,0,0,0,0,0,0,0-.1,0,0,0-.2.2-.2.2,0,0,0,.4,0,.5,0,0,.1.2.2.3,0,.1.3.2.3.4,0,0,0,0,0,.2,0,.1-.2,0-.2.1,0,0-.1.2-.3.2-.3.1-.6.1-1,0,0,0,0,0-.1,0-.2,0-.3,0-.4,0,0,0,0,0,0,0-.1,0-.2,0-.2,0,0,0-.3,0-.4,0,0,0,0,0,0,0,0,0,0,0-.1,0,0,0-.1-.2-.2-.2-.1,0-.2.1-.3.1-.1,0,0-.1,0-.2,0,0-.1,0-.2,0-.2,0-.4,0-.6.2-.5.2-1.1.3-1.5.5-.2,0-.3.3-.6.3,0,0-.3,0-.3.1,0,0-.2.2-.2.2,0,0,0,.3,0,.3,0,0-.1,0-.2,0,0,0,0,.2,0,.2,0,.1-.2.1-.2.3,0,.1,0,0,.1,0,0,0,0,0,.1.1,0,0,.2,0,.3,0,0,0,0,0,0,0,0,0,.2,0,.2,0,0,0,0,.1.2,0,.1,0,.4-.4.5-.4,0,0,.1,0,.2,0,0,0,0,0,.1,0,.2-.1.5-.2.7-.2s.5-.2.7-.1c0,0,0,0,0,.1h.2s0,0,0,0c0,0,0,0,.1,0,0,0,.3.2.3.2,0,0,.7.1.8.2,0,.1,0,0-.8,0-.3,0-.5,0-.8.1-.2,0-.4.3-.6.4-.2,0-.3,0-.5,0-.2,0-.4.3-.5.5-.2.1-.3,0-.4,0,0,.1-.2.2-.2.3-.1.2-.1.3-.2.5,0,0-.1.2-.1.3,0,0,0,.1,0,.1,0,0,0,0,0,0-.2.1.3.3.4.3,0,0,0,.1.1.2.1,0,.2,0,.3-.1,0,0,.2,0,.2-.1,0,0,.1,0,.2-.1,0,0,.2,0,.2,0,0,0,0,0,0,0,0,0,0,0-.1,0,0-.1.2,0,.2-.1,0,0,0,0,.1-.1.3-.2.6-.5.9-.7.2-.1.4-.2.6-.3,0,0,.1,0,.2,0,.3,0,.5.3.7.4,0,0,0,0,0,0,0,0,0,0,.1,0,0,0,0,0,.2.1,0,0,.2,0,.3,0,0,0,.1,0,.2.1.3,0,.6.1.9.2.2,0,.5,0,.7,0,0,0,0-.2,0-.2,0,0,.1,0,.2,0,0,0,0-.1.1-.2,0,0,.2,0,.3,0,0,0,.1-.2.2-.2,0,0,0,0,.1,0,0,0,.1,0,.2,0,0,0,0,.1.1,0l.6-.6c.1,0,.3,0,.3-.3,0,0,0,0,0-.2,0,0,.1,0,.2,0s.2,0,.2.1c.3.1.7.2,1,.3.3,0,.6,0,.9.3.1,0,.2.2.3.2.2.1.4.2.6.3,0,0,.1,0,.1.2,0,0-.2,0-.3,0,0,0,.2.2.3.2s0-.1.2,0c0,0,0,0,0,.1.1.2.5.5.6.5,0,0,.2,0,.2,0,.5.2,1,.2,1.5.1.2,0,.3,0,.5,0,0,0,.2,0,.2,0s.2,0,.2,0c.2,0,.4,0,.5,0,.2,0,.7,0,.8,0,0,0,2.5,1.7,2.5,1.6,0,0,.1,0,.1,0s.1,0,.2,0c0,0-.2,0-.2,0,0,0,.4,0,.6,0,0,0,0,0,0,0,0-.1,0-.2.1-.3,0,0-.2,0-.2,0,0,0,0,0,0,0-.2,0-.3,0-.5-.1,0,0,0,0,0,0h.2c0,0,0,0,.1.1,0,0,0,0,.1,0s.2.1.3,0c0,0-.2-.3,0-.2,0,0,.1,0,.1.1,0,0,0,0,0,0,0-.1-1.3-1.4-1.6-1.6,0,0,0,0,0,0,0,0,0,0,0,0,0,0-.3,0-.4,0,0,0,0,0-.1,0,0,0-.2,0-.3,0,0,0-.2-.1-.4-.3,0,0-.1,0-.1.1,0,0,.2.2.1.3,0,0-.2,0-.2,0,0,0-.2,0-.2,0,0,0,0,.2-.2.2,0,0-.3,0-.3,0-.1,0-.3,0-.4-.1-.2-.1,0-.1.1-.1.2,0,.3-.1.5-.2.1,0,.3,0,.4,0,0,0,.2,0,.2-.1,0,0-.1-.1-.1-.1,0,0,.7-.1.8-.1s.2,0,.2,0c0,0,.3.2.4.3,0,0,.2.1.3.2.3.1.3.2.6.3,0,0,.1,0,.2.1,0,0,.1,0,.2,0,0,0,.2,0,.2,0,0,0,.2,0,.3,0,.2,0,.4-.2.5-.3,0,0,.2-.1,0-.2h0ZM158.2,19.3s0,0,0,0c.3.1.7.2,1,.4.2.1.4.3.6.4,0,0,.2,0,.2.1s0,.3,0,.3c0,0-.2,0-.2,0,0,0,0-.1-.1-.1,0,0-.1-.1-.2-.1-.2-.1-.4-.2-.6-.3-.1,0-.4-.2-.5-.3,0,0,0,0,0,0,0,0,0,0-.1,0,0,0,0,0,0,0,0,0-.2,0-.2-.2,0,0,.1,0,.2,0h0ZM152.9,11.8c-.3-.2-.4-.2-.6-.6,0,0,0,0-.1,0-.1-.2-.2-.4-.4-.6,0,0,0-.2,0-.2,0,0,0,0,0,0,0-.1,0-.5,0-.6.1,0,.1,0,.2.2t0,0s.1-.2.1-.2c0,0,0-.2,0-.3,0,0,.2,0,.3.1,0,0,0,.2,0,.2,0,0,0,0,0,0,0,.1.1.3,0,.5.1.2.2.4.4.6,0,0,0,0,.1.1.1.2.3.4.4.6.2.3.3.5.5.8,0,0,.2.2.3.3,0,0,.1-.1.2,0,0,0,.3.4.3.5,0,0,.2.2.2.3,0,0,0,0,0,0,0,0,0,0,0,0,0,0-.1,0-.2,0-.1-.1-.3-.2-.5-.3-.1,0-.3-.1-.4-.2-.1-.1-.1,0-.3-.2,0,0,0,0-.2-.1,0,0,0,0,0,0,0,0,.2.1.2,0,0-.2-.3-.2-.5-.3-.2,0-.4-.3-.5-.4h0ZM144,16.9s-.2,0-.2,0c0,0-.2-.2-.2-.2,0,0,.1,0,.1-.2,0,0-.1,0-.2,0-.1,0-.4-.2-.5-.3,0,0-.2-.1-.2-.1,0,0,.1,0,0-.2,0-.2-.3-.1-.4,0,0,0,0,0-.1,0-.4.2-.8.2-1.2.4-.1,0-.7.2-.8.3,0,0,0,.1,0,.2,0,0-.4.1-.5.2,0,0,0,0,0-.1,0,0,0,0,.1-.1,0-.1-.1-.6,0-.6,0,0,.3,0,.4,0,.2,0,.2-.2.4-.3.2-.1.6-.2.9-.3.2,0,.2,0,0,.1-.2,0-.3.2-.4.3,0,0-.1,0-.2,0,0,0-.2.2,0,.2,0,0,.2,0,.3-.1.1,0,.4-.2.5-.3.1,0,.3,0,.4,0,.2,0,.3-.2.4-.3.3-.2.8,0,1.1,0,0,0,.1,0,.2,0,.1,0,.1,0,.2,0,.1,0,.2,0,.3,0,.1,0,.2.2.3.3,0,0,0,0,.1,0,.1,0,.2.1.3,0,0,.3-.2,0-.2,0,0,0-.2,0-.3,0,0,.2.3.2.4.3.1.2-.3.3-.3.5,0,0,.4-.2.4-.3,0,0,0,0,0,0,0,0,0-.1,0-.2,0,0,0,0,0,0,0,0,.1,0,.2-.2,0,0,0,0,0,0s-.1.2-.2.2c0,.1-.2.3-.3.4,0,0-.2,0-.2.1,0,0,0,.1,0,.2-.1,0-.3,0-.5,0s-.3,0-.4,0c0,0,0-.1,0-.1h-.2,0ZM160.3,18.9c-.3,0-.9-.1-1.2-.3-.2,0-.4-.2-.6-.3,0,0-.2-.2-.3-.3,0,0-.3,0-.3,0,0,0-.2,0-.3.1s0,0,0,0c-.1,0-.4,0-.5.1-.3,0-.6.2-.9.2-.2,0-.5.2-.7.2-.3,0-.4,0-.8,0-.2,0-.5.2-.7.2,0,0-.1,0-.2,0s0,0,0,0c0,0-.3,0-.3,0s-.1,0-.2,0c0,0-.6-.2-.6-.3,0,0,0,0-.1-.1-.2,0-.4-.1-.6-.2,0,0,0,0,0,0-.5-.2-1.1-.5-1.6-.6-.1,0-.4,0-.2,0h.4c0,.2.1.2,0,.2-.3,0-.8-.2-1.1-.4-.1,0-.4-.2-.5-.2,0,0,0,0,0,0,0,0-.3,0-.4,0,0,0,0,0,0,0,0,0-.4.2-.5.2-.2.1-.5.3-.7.5,0,0-.2.2-.3.3-.3.2-.8.3-1.2.3-.3,0-.4,0-.6-.2-.2,0-.5-.2-.7-.3,0,0-.2,0-.3,0-.1,0-.2,0-.3,0-.1,0-.2-.1-.3-.2,0,0-.1,0-.2,0-.1,0-.2-.2-.3,0,0,0,0,0,0,.1,0,0,0,0-.1,0,0,0,0,0,0,0-.1,0-.4,0-.5,0-.1,0,0,.2,0,.3-.1,0-.2.2-.4.3,0,0-.2.2-.2.2,0,0-.1,0-.2,0,0,0-.2.2-.2.2,0,0,0,0-.1,0,0,0,0,0,0,.1,0,0-.2,0-.3,0h-.2c0,0-.2,0-.3,0,0,0,0,0,0,0,0,0,.2-.1.2-.2,0,0,0-.2,0-.3,0,0,.2-.3.3-.3,0,0,0,0,.1,0,0,0,.3-.3.3-.3,0,0,.1-.2.3-.2h0c.2,0,.2-.1.3-.2,0,0,0,0,.1,0,.1,0,.3-.1.4-.2.3-.1.6-.4.9-.4,0,0,.2,0,.2,0,0,0,0,0,0,0,.5,0,.9,0,1.3,0,0,0,0,0,0,0,0,0,.2,0,.3,0,0,0,0,0,0,0,.1,0,.4-.1.5-.2,0,0,0,0,0,0,0,0,.2-.2.2-.3s0,0-.2,0c0,0,0,0,0,0s.2-.2.2-.3c0,0,0,0,.2-.2,0,0,.1-.2.2-.3,0,0,0,0,.1,0,0,0,.2-.2.3-.3,0,0,0,0,0-.2,0,0,.1,0,.2-.1.1,0,.2-.2.3-.2.3-.1.8-.2,1.1-.2,0,0,.2,0,.3,0s.2,0,.3,0c.2,0,.3,0,.5,0,.7,0,1.4,0,2,0,.2,0,.5.1.7.2,0,0,.2,0,.2,0,.1,0,.3,0,.4,0,.1,0,.6-.1.7-.2.2,0,.4-.2.6-.3,0,0,.1,0,.2,0,0,0,.1-.1.2-.2,0,0,.4-.2.4-.2,0,0,.2,0,.2,0s0-.1.1-.2c0,0,0,0,0,0,0,0,0,0,0-.1,0,0,0,0,.1,0,0,0,0-.1,0-.2,0,0,0,0-.1,0-.5-.2-.9,0-1.4-.1-.3,0-.5,0-.9,0,0,0-.2,0-.2,0,0,0,.2,0,.2,0,0,0,0,0,0,0,0,0-.2,0-.3,0-.3-.1-.6-.3-.9-.5-.2-.2-.6-.4-.8-.6,0,0-.2-.2-.2-.2,0,0,0,0,0-.1,0,0,0,0,0,0,0,0,0-.5,0-.5s.2,0,.2,0c.1,0,0,.2.1.4,0,.2.1,0,.2,0,0,0,.2.2.2.2,0,0,0,0,0,0s-.2-.2-.2-.3c0,0,.3,0,.4,0,0,0,.2,0,.3,0,0,0,0,0,.1.1.3.1.6.3.9.5,0,0,.2,0,.3.1,0,0,0,0,0,0,0,0,.3,0,.3,0,.2,0,.3.2.5.3,0,0,.1,0,.2,0,0,0,.1.2.1.2,0,0,.1,0,.1,0,0,0,0,0,0,0s.1,0,.2,0c0,0,0,0,0,0,0,0,.1,0,.2,0,.1,0,.3.2.4.3,0,0,.1,0,.2,0,.2,0,.2.2.4.2.1,0,.3,0,.4,0,.2,0,.6,0,.7.2,0,.2.2.3.2.5,0,0,.3.3.3.4s0,0,.1,0c0,0,0,0,0,.1s.1,0,.1.2-.4.4-.5.5,0,0-.1,0c0,0,0,.1-.1.1,0,0-.3,0-.4,0-.2,0-.5,0-.7-.2s-.2-.2-.2-.2c0,0-.4,0-.5,0-.2,0-.1.2-.2.3,0,0-.2.4-.3.4,0,0-.1,0-.2.1,0,.1,0,.2,0,.2s-.2.4-.3.5c0,0-.2.1-.2.3,0,0,0,0,0,.1,0,0-.3.3-.2.3.2,0,.4,0,.5,0,0,0,0,0,.1,0,0,0,0,0,.2,0,0,0,.1,0,.2,0,.3,0,.6,0,1-.1.1,0,.2-.2.4-.2,0,0,0,0,.2,0,0-.3.2-.2.4-.2.1,0,.3,0,.4,0s.2,0,.4,0c.2,0,.6,0,.8,0,0,0,.1,0,.2.1,0,0,.2,0,.3,0,0,0,0,0,.1.1.1,0,.3.1.4.2.2.1.4.4.6.5,0,0,.2,0,.2.1,0,0,0,.1,0,.2,0,.1.2,0,.3.1.1,0-.2.2-.2.2h0Z"/>
    </g>
    <g>
      <path class="st0" d="M136.8,19.3h0s0,0,0,0h0Z"/>
      <path class="st0" d="M142.4,8.3c0,0,.1,0,.2,0,0,0,0,0-.2,0Z"/>
      <polygon class="st0" points="164.4 12.7 164.4 12.7 164.5 12.8 164.4 12.7"/>
      <path class="st0" d="M165,14.9c0-.1,0-.2,0-.3,0-.1,0-.2,0-.3,0,0,0-.1-.2-.3h0c-.2-.4-.2-.5-.2-.6s0,0,0-.2c0,0,0-.2-.2-.4h-.2c-.1-.3-.2-.4-.2-.4,0,0,0-.1,0-.2,0,0,0-.1-.1-.2,0,0-.2-.2-.3-.3.1.1.1.2,0,.2s-.2-.1-.3-.3h.1c-.2-.1-.2-.2-.3-.3.1,0,.1,0-.1-.2h.2c0,.1-.3,0-.3,0,0,0-.2-.1-.3-.2-.2-.2-.4-.4-.6-.6-.2-.2-.4-.3-.5-.4,0,0,0,0-.1,0,0,0-.2-.1-.3-.2-.2-.2-.5-.3-.7-.3.2,0-.3-.2-.1-.2-.3,0-1-.4-1.3-.6h0c-.1,0-.3-.1-.4-.2-.1,0-.2,0-.4-.2-.2,0-.5-.2-.7-.2-.5-.1-.9-.3-1.4-.4,0,0-.5,0-.4,0-.3,0-.5,0-.8-.2-.2,0-.5-.1-.7-.2-.2,0-.4,0-.5,0s-.3,0-.4,0c-.5,0-.6-.1-.8-.2h.1c-.9,0-1.2,0-1.9,0-.2,0-.3,0-.4,0-.3,0-.5,0-.8,0,0,0,0,0-.2,0,0,0-.1,0-.2,0,0,0,0,0,0,0-.2,0-.2,0-.3,0-.3,0-.6,0-.9,0,0,0,0,0,0,0-.3,0-.6,0-.8.1-.6,0-1.2.2-1.8.4,0,0,0,0,0,0-.2,0-.4.1-.7.2,0,0,0,0,.2,0s.3,0,.4,0c-.8,0-1.6.5-2.5.8h-.2c0,.1,0,.1,0,.1,0,0-.2.2-.3.2-.2,0,0-.1-.5,0-.4,0-.9.5-1.4.8.2-.1.2,0,0,0-.2.1-.3.1-.5.3h0s0,0-.2.2c-.1.1-.3.2-.3.3-.2,0,.3-.2.3-.3-.4.3-.5.3-.6.4,0,0,0,0-.2.1s-.2.2-.4.3c-.3.4.1,0,0,.2-.2.2-.3.3-.4.5-.2.2-.3.4-.5.5h.2c0,0,0,0-.1.1-.7.9-1.1,1.8-1.4,2.8,0,0,0,0,0,.2,0,0,0,.1,0,.2,0,.4,0,.7,0,1.1s0,.3,0,.4c0,.2,0,.3,0,.5,0,.1,0,.2,0,.3s0,.2,0,.3c0,0,0,.1.2.3h0c0,.3.1.4.2.4,0,0,0,.1,0,.2,0,0,0,.2.2.6,0,0,0,0,.2,0,.1.2.2.3.2.3,0,0,0,.1,0,.2,0,.1,0,.2.4.5,0-.1,0-.2,0-.2,0,0,.1.2.2.3h0c0,0,0,0,.1.1,0,0,0,.1.2.2,0,0-.1,0,.1.2h-.2c.2,0,.3.1.5.3,0,0,.2.2.3.3,0,0,.2.2.3.3.2.2.4.3.4.4,0,0,0,0,.1.1,0,0,.2.2.3.2.2.2.5.3.6.4-.2,0,.3.3,0,.2.3,0,1,.4,1.2.6h0c.1,0,.2.1.4.2.1,0,.2.1.4.2.2,0,.5.2.7.2.2,0,.5.2.7.2.1,0,.2,0,.3.1.1,0,.2,0,.4.1,0,0,.5.1.4,0,.5,0,1,.2,1.4.3.2,0,.4,0,.5,0,.2,0,.3,0,.4,0,.1,0,.2,0,.3,0,0,0,.1,0,.2,0,.1,0,.2,0,.3,0h-.1c.9,0,1.2,0,1.9.1.2,0,.2,0,.3,0h.8s0,0,.2,0c0,0,0,0,.2,0h0s0,0,0,0h.3c.2,0,.3,0,.5,0,0,0,.2,0,.3,0,0,0,0,0,.1,0,.4,0,.8-.1,1.2-.2,0,0,0,0,.2,0,0,0-.2,0,0,.1.5,0,.8,0,1.4-.2h0c.2,0,.4,0,.6,0s.4,0,.5-.1c.3,0,.6-.1.9-.3,0,0,.2,0,.2,0s.1,0,.2,0c0,0,.2,0,.2,0,.2,0,.3,0,.7-.3h.3c.2-.2.2-.2.3-.3,0,0,.1-.1.3-.2,0,0,.5-.2.3,0,.1,0,.2-.1.3-.2s.2-.1.3-.2c.2-.1.4-.3.6-.5.4-.3.8-.7,1.2-1.2,0-.1.2-.3.3-.5,0-.1.2-.3.2-.4.2-.2.3-.3.4-.5,0,0,0,0,0,0,0,0,0,.1,0,.1h0c.2-.2.4-.5.5-.8h0c.7-1.1,1.1-2.4,1.1-3.7v-.2s0,0,0,0c0-.1,0-.2,0-.3,0-.2,0-.4,0-.7h0ZM163.9,16.4c0,.1,0,.2,0,.3,0,.1,0,.3-.1.4,0,.2-.1.3-.1.4,0,0,0,.2,0,.2-.2.5-.4.9-.6,1.3-.2.4-.4.7-.7,1.1-.2.3-.5.6-.7.9-2.4,2.1-6.3,3.4-10.8,3.4s-2.7-.1-3.9-.4c-.6-.2-1.2-.3-1.7-.5-1.2-.4-2.3-.9-3.4-1.4,0,0-.2-.1-.2-.1-.6-.4-1.2-.8-1.7-1.3h0c0-.1-.1-.2-.2-.3,0,0-.2-.2-.3-.3,0,0-.1-.1-.2-.2,0,0-.1-.2-.2-.2-.2-.3-.5-.7-.7-1.1-.2-.3-.3-.7-.5-1-.1-.4-.2-.9-.2-1.4s0-.5,0-.8c.2-1,.6-1.9,1.3-2.8.4-.6,1-1.1,1.6-1.6.6-.4,1.2-.8,1.8-1.1h.1s.2,0,.4-.2c.2-.1.3-.2.4-.2,0,0,.2-.1.3-.2,0,0,.3,0,.1,0,.3-.1.3-.1.5-.2h.3c.6-.2,1.1-.4,1.6-.5.3,0,.5-.2.8-.2.1,0,.3,0,.4,0s.3,0,.4,0c.7,0,1.8-.2,2.9-.2,1.1,0,2.2,0,3,0,.6,0,1.2.1,1.8.3.3,0,.6.2.9.2.3,0,.6.2.9.3.3.1.6.2.9.3.3.1.6.2.8.4.3.1.5.3.8.4s.5.3.8.4c0,0,0,0,.2,0,2.2,1.5,3.6,3.5,3.6,5.7v.2h0s0,0,0,0Z"/>
    </g>
  </g>
</svg>