<?xml version="1.0" encoding="UTF-8"?>
<svg id="Layer_1" data-name="Layer 1" xmlns="http://www.w3.org/2000/svg" width="1080" height="1080" viewBox="0 0 1080 1080">
  <path d="M634.93,447.21c-24.19-63.76-36.98-118.46-36.98-158.21V83.13c0-8.61-6.98-15.59-15.59-15.59h-84.72c-8.61,0-15.59,6.98-15.59,15.59v205.87c0,39.74-12.79,94.45-36.98,158.21-34.11,89.9-51.41,184.41-51.41,280.91v259.34c0,23.19,18.86,42.05,42.05,42.05h208.59c23.19,0,42.05-18.86,42.05-42.05v-259.34c0-96.49-17.3-191-51.41-280.91ZM566.77,98.72v48.13h-53.54v-48.13h53.54ZM655.16,987.46c0,5.99-4.87,10.87-10.87,10.87h-208.59c-5.99,0-10.87-4.87-10.87-10.87v-259.34c0-92.7,16.61-183.49,49.38-269.84,25.88-68.21,39.01-125.17,39.01-169.27v-110.97h53.54v110.97c0,44.11,13.12,101.06,39.01,169.27,32.77,86.36,49.38,177.14,49.38,269.84v259.34Z"/>
</svg>