<?xml version="1.0" encoding="UTF-8"?>
<svg id="Layer_1" data-name="Layer 1" xmlns="http://www.w3.org/2000/svg" width="1080" height="1080" viewBox="0 0 1080 1080">
  <path d="M444.67,630.82c0-35.4-28.7-64.1-64.1-64.1s-64.1,28.7-64.1,64.1,28.7,64.1,64.1,64.1,64.1-28.7,64.1-64.1ZM380.56,663.74c-18.15,0-32.92-14.77-32.92-32.92s14.77-32.92,32.92-32.92,32.92,14.77,32.92,32.92-14.77,32.92-32.92,32.92Z"/>
  <path d="M456.21,630.82c0,35.4,28.7,64.1,64.1,64.1s64.1-28.7,64.1-64.1-28.7-64.1-64.1-64.1-64.1,28.7-64.1,64.1ZM553.23,630.82c0,18.15-14.77,32.92-32.92,32.92s-32.92-14.77-32.92-32.92,14.77-32.92,32.92-32.92,32.92,14.77,32.92,32.92Z"/>
  <path d="M520.31,823.13c-35.4,0-64.1,28.7-64.1,64.1s28.7,64.1,64.1,64.1,64.1-28.7,64.1-64.1-28.7-64.1-64.1-64.1ZM520.31,920.15c-18.15,0-32.92-14.77-32.92-32.92s14.77-32.92,32.92-32.92,32.92,14.77,32.92,32.92-14.77,32.92-32.92,32.92Z"/>
  <path d="M660.05,566.72c-35.4,0-64.1,28.7-64.1,64.1s28.7,64.1,64.1,64.1,64.1-28.7,64.1-64.1-28.7-64.1-64.1-64.1ZM660.05,663.74c-18.15,0-32.92-14.77-32.92-32.92s14.77-32.92,32.92-32.92,32.92,14.77,32.92,32.92-14.77,32.92-32.92,32.92Z"/>
  <path d="M514.54,759.03c0-35.4-28.7-64.1-64.1-64.1s-64.1,28.7-64.1,64.1,28.7,64.1,64.1,64.1,64.1-28.7,64.1-64.1ZM450.44,791.95c-18.15,0-32.92-14.77-32.92-32.92s14.77-32.92,32.92-32.92,32.92,14.77,32.92,32.92-14.77,32.92-32.92,32.92Z"/>
  <path d="M590.18,694.92c-35.4,0-64.1,28.7-64.1,64.1s28.7,64.1,64.1,64.1,64.1-28.7,64.1-64.1-28.7-64.1-64.1-64.1ZM590.18,791.95c-18.15,0-32.92-14.77-32.92-32.92s14.77-32.92,32.92-32.92,32.92,14.77,32.92,32.92-14.77,32.92-32.92,32.92Z"/>
  <path d="M450.44,566.72c35.4,0,64.1-28.7,64.1-64.1s-28.7-64.1-64.1-64.1-64.1,28.7-64.1,64.1,28.7,64.1,64.1,64.1ZM450.44,469.69c18.15,0,32.92,14.77,32.92,32.92s-14.77,32.92-32.92,32.92-32.92-14.77-32.92-32.92,14.77-32.92,32.92-32.92Z"/>
  <path d="M374.79,502.62c0-35.4-28.7-64.1-64.1-64.1s-64.1,28.7-64.1,64.1,28.7,64.1,64.1,64.1,64.1-28.7,64.1-64.1ZM310.69,535.54c-18.15,0-32.92-14.77-32.92-32.92s14.77-32.92,32.92-32.92,32.92,14.77,32.92,32.92-14.77,32.92-32.92,32.92Z"/>
  <path d="M654.28,502.62c0-35.4-28.7-64.1-64.1-64.1s-64.1,28.7-64.1,64.1,28.7,64.1,64.1,64.1,64.1-28.7,64.1-64.1ZM557.26,502.62c0-18.15,14.77-32.92,32.92-32.92s32.92,14.77,32.92,32.92-14.77,32.92-32.92,32.92-32.92-14.77-32.92-32.92Z"/>
  <path d="M729.92,438.51c-35.4,0-64.1,28.7-64.1,64.1s28.7,64.1,64.1,64.1,64.1-28.7,64.1-64.1-28.7-64.1-64.1-64.1ZM729.92,535.54c-18.15,0-32.92-14.77-32.92-32.92s14.77-32.92,32.92-32.92,32.92,14.77,32.92,32.92-14.77,32.92-32.92,32.92Z"/>
  <path d="M509.45,362.57c-6.96,28.06-8.7,56.82-4.53,82.31,1.25,7.65,7.86,13.08,15.37,13.08.84,0,1.68-.07,2.54-.21,8.5-1.39,14.26-9.41,12.87-17.9-5.59-34.17,1.55-75.69,19.09-111.07,14.3-28.83,41.85-66.42,91.89-81.77,8.23-2.52,12.86-11.24,10.33-19.48-2.52-8.23-11.24-12.86-19.48-10.33-25.1,7.7-47.72,20.77-67.24,38.84-11.42,10.57-21.61,22.71-30.47,36.23-2.69-19.59-8.79-41.32-21.31-61.16h0c-33.54-53.13-99.11-70.44-101.88-71.15-4.16-1.07-8.57-.37-12.19,1.92-3.63,2.29-6.15,5.97-6.98,10.18-.55,2.81-13.12,69.45,20.42,122.58,26,41.19,71.25,60.85,91.57,67.93ZM426.16,196.3c18.82,7.85,48.54,23.84,65.98,51.45h0c17.43,27.61,19.09,61.33,18.08,81.69-18.82-7.85-48.54-23.84-65.98-51.45-17.43-27.62-19.09-61.33-18.08-81.69Z"/>
</svg>