<?xml version="1.0" encoding="UTF-8"?>
<svg id="Layer_1" data-name="Layer 1" xmlns="http://www.w3.org/2000/svg" width="1080" height="1080" viewBox="0 0 1080 1080">
  <path d="M402.44,515.93c-2.82-.32-69.71-7.48-119.55,29.85-10.18,7.62-18.77,16.45-26.01,25.7.76-9.22,1.33-18.42,1.63-27.6,1.24-38.25-2.23-72.3-10.54-102.89l19.76,25.71c2.79,3.63,7,5.54,11.25,5.54,3.01,0,6.05-.96,8.63-2.94,6.21-4.77,7.37-13.67,2.6-19.87l-19.54-25.42,25.46,19.48c2.57,1.97,5.6,2.92,8.6,2.92,4.26,0,8.48-1.92,11.27-5.56,4.76-6.22,3.57-15.11-2.64-19.87l-28.75-22,33.62,13.44c1.73.69,3.5,1.02,5.26,1.02,5.63,0,10.95-3.37,13.17-8.92,2.91-7.27-.63-15.52-7.9-18.42l-32.67-13.06,34.97,3.87c.53.06,1.05.09,1.57.09,7.13,0,13.27-5.37,14.07-12.62.86-7.78-4.75-14.78-12.53-15.64l-36.94-4.08,36.66-6.11c7.72-1.29,12.94-8.59,11.65-16.31-1.29-7.72-8.58-12.94-16.31-11.65l-34.23,5.71,31.48-14.6c7.1-3.29,10.19-11.72,6.89-18.82-3.29-7.1-11.72-10.19-18.82-6.89l-32.79,15.21,27.49-23.48c5.95-5.08,6.65-14.03,1.57-19.98-5.08-5.95-14.03-6.66-19.98-1.57l-30.25,25.84,21.85-33.25c4.3-6.54,2.48-15.33-4.06-19.63-6.54-4.3-15.33-2.48-19.63,4.06l-23.15,35.24,12.14-40.38c2.25-7.5-2-15.4-9.49-17.65-7.49-2.25-15.4,2-17.65,9.49l-12.4,41.24v-43.07c0-7.83-6.35-14.17-14.17-14.17s-14.17,6.35-14.17,14.17v21.28l-5.03-20.68c-1.85-7.61-9.52-12.27-17.12-10.42s-12.27,9.52-10.42,17.12l4.13,16.98-7.92-15.58c-3.55-6.98-12.08-9.76-19.06-6.22-6.98,3.55-9.76,12.08-6.22,19.06l15.36,30.23-22.79-25.11c-5.26-5.8-14.22-6.23-20.02-.97-5.8,5.26-6.23,14.22-.97,20.02l26.8,29.52-33.97-20.87c-6.67-4.1-15.4-2.01-19.5,4.66-4.1,6.67-2.01,15.4,4.66,19.5l31.21,19.18-35.24-10.02c-7.53-2.14-15.37,2.23-17.51,9.76s2.23,15.37,9.76,17.51l40.85,11.62-42.47.56c-7.83.1-14.09,6.53-13.98,14.36.1,7.76,6.43,13.99,14.17,13.99.06,0,.13,0,.19,0l33.98-.45-32.66,9.41c-7.52,2.17-11.86,10.02-9.7,17.54,1.79,6.21,7.46,10.25,13.61,10.25,1.3,0,2.62-.18,3.93-.56l40.13-11.56-35.19,22.49c-6.6,4.21-8.53,12.98-4.31,19.57,2.7,4.23,7.28,6.54,11.96,6.54,2.61,0,5.25-.72,7.62-2.23l24.92-15.92-20.07,21.73c-5.31,5.75-4.95,14.72.8,20.03,2.73,2.52,6.17,3.76,9.61,3.76,3.82,0,7.62-1.53,10.42-4.56l23.6-25.55-15.95,30.91c-3.59,6.96-.86,15.5,6.09,19.1,2.08,1.07,4.3,1.58,6.49,1.58,5.13,0,10.09-2.8,12.61-7.68l20.07-38.89-7.94,43.03c-1.42,7.7,3.67,15.09,11.37,16.51.87.16,1.73.24,2.59.24,6.7,0,12.66-4.78,13.92-11.6l6.7-36.34,3.41,36.8c.68,7.35,6.86,12.87,14.1,12.87.44,0,.88-.02,1.32-.06,7.79-.72,13.53-7.63,12.8-15.42l-4.73-50.99c20.74,60.27,15.68,128.07,4.68,196.47-5.07-12.95-12.07-26.01-21.74-37.93-39.23-48.36-105.84-57.73-108.66-58.11-3.87-.52-7.77.59-10.8,3.04-3.03,2.46-4.91,6.05-5.2,9.94-.21,2.83-4.79,69.94,34.44,118.31,29.22,36.02,73.63,50.41,95.55,55.57-10.02,54.87-17.8,106.61-12.4,152.3.85,7.21,6.97,12.51,14.06,12.51.55,0,1.12-.03,1.68-.1,7.77-.92,13.33-7.96,12.41-15.74-5.75-48.7,5.32-107.75,17.04-170.27,1.91-10.2,3.83-20.47,5.7-30.78,1.92.06,4.08.1,6.44.1,23.5,0,67.61-4.03,103.08-30.6,49.84-37.33,61.78-103.53,62.26-106.33.66-3.84-.29-7.79-2.62-10.91s-5.86-5.14-9.73-5.58ZM193.98,383.91c-20.08,0-36.42-16.34-36.42-36.42s16.34-36.42,36.42-36.42,36.42,16.34,36.42,36.42-16.34,36.42-36.42,36.42ZM130.98,647.91c-21.49-26.5-26.85-61.47-28.04-81.77,19.63,5.35,52.74,17.81,74.23,44.31,21.49,26.5,26.85,61.47,28.04,81.77-19.63-5.35-52.74-17.81-74.23-44.31ZM335.54,616.07c-27.31,20.45-62.46,24.46-82.79,24.86,6.11-19.41,19.84-52.01,47.14-72.46,27.31-20.45,62.46-24.46,82.79-24.86-6.11,19.41-19.84,52.01-47.14,72.46Z"/>
  <path d="M1018.43,385.95c.02-.31.02-.62.02-.93,0-.2,0-.41,0-.61-.01-.32-.05-.64-.08-.97-.02-.19-.04-.39-.07-.58-.05-.31-.11-.63-.18-.94-.04-.2-.08-.4-.13-.61-.07-.28-.16-.56-.25-.84-.07-.23-.14-.46-.22-.69-.09-.24-.19-.47-.29-.7-.11-.26-.22-.52-.34-.78-.03-.05-.05-.11-.07-.17-.08-.17-.18-.32-.27-.48-.13-.25-.27-.49-.41-.73-.15-.25-.32-.48-.48-.71-.1-.15-.19-.3-.3-.45-.03-.04-.07-.08-.1-.12-.2-.27-.42-.52-.64-.77-.12-.14-.24-.29-.36-.42-.25-.27-.51-.52-.78-.76-.11-.11-.22-.22-.34-.32-.29-.25-.59-.49-.9-.72-.11-.08-.21-.17-.32-.25-.33-.23-.67-.44-1.01-.65-.1-.06-.19-.13-.3-.19-.41-.23-.82-.44-1.25-.63-.05-.02-.09-.05-.13-.07-.47-.21-.96-.4-1.45-.56-.09-.03-.19-.05-.28-.08-.4-.12-.8-.24-1.21-.33-.14-.03-.28-.05-.42-.08-.37-.07-.74-.14-1.12-.19-.03,0-.06-.01-.09-.01-4.48-.51-110.63-11.88-189.51,47.2-30.83,23.09-52.5,53.21-67.51,81.59.63-45.17,2.04-77.6,7.72-105.19,26.06-14.35,96.89-59.03,126.63-134.8,36-91.74-3.15-191.06-4.84-195.24-.04-.09-.09-.18-.13-.27-.11-.27-.24-.54-.37-.8-.1-.2-.19-.39-.3-.58-.15-.27-.31-.54-.48-.81-.11-.17-.21-.34-.32-.5-.18-.27-.38-.53-.58-.79-.12-.15-.23-.3-.35-.45-.21-.25-.43-.48-.65-.72-.14-.15-.27-.29-.42-.43-.21-.21-.44-.4-.67-.6-.18-.15-.35-.31-.53-.45-.2-.16-.42-.31-.64-.46-.22-.16-.44-.32-.67-.46-.05-.03-.1-.07-.16-.11-.17-.1-.34-.18-.51-.28-.23-.13-.46-.27-.71-.39-.27-.14-.55-.25-.82-.37-.15-.07-.3-.15-.46-.21-.05-.02-.09-.03-.14-.05-.32-.12-.65-.23-.98-.33-.17-.05-.33-.11-.5-.15-.36-.1-.73-.17-1.09-.24-.14-.03-.29-.06-.43-.09-.39-.06-.77-.1-1.16-.14-.13-.01-.26-.03-.39-.04-.4-.03-.81-.03-1.21-.02-.11,0-.23,0-.34,0-.45.02-.91.06-1.36.11-.06,0-.13,0-.19.02-.51.07-1.02.16-1.52.28-.13.03-.25.07-.37.11-.37.1-.75.2-1.11.33-.16.06-.32.13-.48.19-.33.12-.65.25-.97.4-.03.01-.06.02-.09.04-4.08,1.92-100.34,48.09-136.34,139.83s3.15,191.06,4.84,195.24c.04.09.08.17.12.26.11.26.24.52.36.78.1.21.2.41.31.61.14.26.3.51.45.76.11.18.23.37.35.55.1.14.2.28.3.42-4.93,26.92-6.38,57.56-7.04,98.09-12.65-28.19-31.3-58.03-58.67-82.23h0c-73.83-65.28-180.56-62.55-185.07-62.4-.1,0-.2.02-.3.03-.3.02-.59.04-.89.08-.21.02-.43.05-.64.08-.31.05-.62.11-.93.17-.2.04-.39.08-.58.13-.32.08-.63.18-.94.28-.18.06-.36.11-.54.18-.3.11-.6.24-.89.37-.19.08-.37.16-.56.25-.26.13-.52.27-.78.42-.21.12-.42.23-.62.35-.22.14-.43.29-.64.43-.23.16-.46.31-.68.48-.05.04-.1.07-.15.11-.15.12-.28.25-.43.38-.21.18-.42.35-.62.54-.22.2-.42.42-.62.63-.12.13-.25.24-.36.37-.03.04-.06.08-.1.12-.22.26-.43.53-.63.8-.11.14-.22.28-.33.43-.21.3-.4.61-.59.92-.08.13-.17.26-.24.39-.19.33-.35.67-.51,1.01-.06.13-.13.25-.19.38-.15.35-.28.71-.41,1.07-.05.13-.1.25-.14.38-.13.4-.23.8-.33,1.2-.02.1-.06.19-.08.29-.11.5-.19,1.01-.25,1.51-.02.15-.02.29-.03.44-.03.37-.06.74-.07,1.11,0,.17.01.34.01.51,0,.35.01.71.04,1.06,0,.03,0,.07,0,.1.41,4.49,10.77,110.75,84.61,176.02,60.15,53.18,142.11,61.22,172.87,62.3-.11,6.29-.22,12.74-.36,19.37-1.17,56.39-6.21,117.06-13.13,180.77-5.86-37.26-19.77-84.57-52.04-123.79-62.62-76.09-168.44-90.24-172.91-90.8-.1-.01-.2-.01-.3-.02-.29-.03-.57-.05-.86-.06-.23-.01-.45-.02-.68-.03-.3,0-.59.01-.89.02-.22.01-.44.02-.66.04-.3.03-.6.07-.89.12-.21.03-.43.06-.64.1-.29.06-.57.13-.86.2-.22.06-.45.11-.67.18-.26.08-.51.17-.76.26-.25.09-.49.17-.73.27-.22.09-.44.2-.66.3-.26.12-.53.25-.78.39-.05.03-.11.05-.16.08-.16.09-.31.2-.47.3-.24.14-.48.29-.71.44-.25.17-.48.35-.71.53-.14.11-.28.2-.42.31-.04.03-.07.07-.11.1-.26.22-.51.45-.75.69-.13.12-.26.24-.39.37-.26.26-.49.54-.73.82-.1.12-.21.23-.3.35-.24.3-.45.61-.66.92-.08.12-.17.23-.24.35-.21.32-.39.66-.58,1-.06.12-.14.23-.2.35-.19.38-.36.76-.52,1.15-.04.09-.08.17-.12.26-.19.48-.35.96-.49,1.46-.04.13-.06.27-.09.4-.09.37-.18.73-.25,1.11-.03.16-.04.32-.07.49-.05.36-.1.71-.13,1.07,0,.03,0,.06-.01.1-.31,4.5-6.83,111.06,55.79,187.17,62.62,76.11,168.44,90.24,172.91,90.8.07,0,.13.01.2.02.09,0,.17.02.26.02.5.05,1,.08,1.49.08,0,0,0,0,0,0,0,0,0,0,0,0,.92,0,1.83-.08,2.74-.25-3.31,26.95-6.8,54.33-10.34,82.07-3.18,24.97-6.47,50.79-9.63,76.29-.96,7.77,4.56,14.84,12.33,15.8.59.07,1.18.11,1.76.11,7.05,0,13.16-5.26,14.05-12.44,3.14-25.45,6.43-51.24,9.61-76.18,3.67-28.78,7.29-57.18,10.71-85.13,3.28.12,7.02.2,11.18.2,37.31,0,107.2-6.39,163.29-48.41,78.88-59.08,97.82-164.15,98.59-168.59.02-.1.02-.2.04-.3.04-.29.08-.58.1-.87.02-.22.04-.44.05-.66.02-.31.02-.62.02-.93,0-.2,0-.41,0-.61-.01-.32-.05-.64-.08-.97-.02-.19-.04-.39-.07-.58-.05-.31-.11-.62-.18-.94-.04-.2-.08-.41-.13-.61-.07-.28-.16-.56-.25-.83-.07-.23-.14-.46-.22-.69-.09-.23-.19-.47-.29-.7-.11-.26-.22-.53-.34-.78-.03-.05-.04-.11-.07-.16-.08-.17-.18-.32-.27-.48-.14-.25-.27-.5-.42-.74-.15-.24-.31-.47-.47-.7-.1-.15-.2-.31-.31-.45-.03-.04-.07-.08-.1-.12-.2-.26-.42-.51-.63-.76-.12-.14-.24-.29-.37-.43-.25-.26-.51-.51-.77-.75-.12-.11-.23-.22-.35-.33-.28-.25-.58-.48-.88-.7-.11-.09-.22-.18-.34-.26-.32-.22-.65-.43-.98-.63-.11-.07-.22-.14-.33-.21-.37-.21-.76-.4-1.15-.59-.08-.04-.15-.08-.23-.12-.47-.21-.95-.39-1.44-.56-.13-.04-.27-.07-.4-.11-.36-.11-.72-.22-1.09-.3-.16-.04-.33-.06-.49-.09-.35-.07-.7-.13-1.06-.18-.03,0-.06-.01-.1-.02-4.48-.51-110.63-11.88-189.51,47.2-23.75,17.79-42.05,39.74-56.07,61.86,4.29-46.06,7.27-90.36,8.14-132.48.12-5.97.23-11.79.33-17.48,2.98.09,6.3.16,9.95.16,37.31,0,107.2-6.39,163.29-48.41,78.88-59.08,97.82-164.15,98.59-168.59.02-.1.02-.2.04-.31.04-.29.08-.58.1-.86.02-.22.04-.44.05-.66ZM833.83,441.8c33.4-25.02,73.57-35.48,106.18-39.6-.55.33-1.1.66-1.66.99-42.87,25.77-76.01,50.1-98.48,72.33-23.84,23.59-54.89,49.92-79.07,69.67,12.41-32.29,34.82-74.78,73.04-103.4ZM852.94,247.06c-18.28,46.57-55.85,80.47-84.22,100.74,10.65-30.59,24.48-72.78,33.18-108.83,10.52-43.59,37.81-97.48,56.15-130.74,7.85,33.98,14.6,88.62-5.1,138.83ZM748.71,206.15c15.24-38.84,43.91-68.86,69.46-89.52-.29.57-.59,1.14-.89,1.71-22.91,44.46-38.29,82.59-45.7,113.32-7.87,32.6-20.42,71.33-30.6,100.85-6.43-33.98-9.72-81.91,7.72-126.35ZM705.81,546.26c-25.08-20.49-59.98-47.95-90.85-68.48-37.34-24.83-78.61-68.94-103.56-97.57,34.61,4.27,88.26,16.67,128.66,52.4,37.47,33.14,56.44,80.05,65.76,113.66ZM505.6,420.54c.43.47.87.94,1.3,1.42,33.91,36.77,64.46,64.28,90.78,81.79,27.93,18.57,60,43.64,84.24,63.32-34.13-5.61-80.28-18.95-116.05-50.58-31.26-27.64-49.63-64.86-60.28-95.95ZM628.49,698.31c31.79,38.64,43.11,87.95,47.01,122.61-21.54-24.19-51.67-56.81-78.92-81.95-32.95-30.4-66.76-80.47-86.88-112.68,33.5,9.68,84.52,30.38,118.79,72.03ZM542.02,769.45c-26.51-32.22-38.79-71.87-44.39-104.26.35.54.71,1.07,1.06,1.61,27.69,41.66,53.51,73.64,76.75,95.08,24.65,22.74,52.37,52.56,73.2,75.82-32.82-10.92-76.28-31.38-106.62-68.25ZM879.83,807.3c-40.05,30-89.83,39.07-124.63,41.38,25.15-20.41,59.11-49.03,85.47-75.11,31.88-31.54,83.43-63.02,116.53-81.65-11.19,33.03-34.2,83.05-77.37,115.38ZM812.7,717.69c33.41-25.02,73.58-35.49,106.19-39.61-.56.33-1.11.66-1.67,1-42.87,25.77-76.01,50.1-98.48,72.33-23.84,23.59-54.89,49.92-79.07,69.67,12.41-32.29,34.82-74.77,73.04-103.4ZM900.95,531.42c-40.05,30-89.83,39.07-124.63,41.38,25.15-20.41,59.11-49.03,85.47-75.11,31.88-31.54,83.43-63.02,116.53-81.65-11.2,33.03-34.2,83.05-77.37,115.38Z"/>
</svg>